<svg width="69" height="36" fill="none" xmlns="http://www.w3.org/2000/svg"><g clip-path="url(#clip0_1064_58931)" fill="#56504C"><path d="M6.322 22.073c.774 0 1.67-.221 1.67-1.28v-2.511h2.628c1.014 0 1.228-.924 1.228-1.7 0-.775-.214-1.698-1.228-1.698H7.968v-2.34c0-1.016-.91-1.23-1.67-1.23-.76 0-1.695.214-1.695 1.23v2.364H2c-1.057 0-1.277.924-1.277 1.7 0 .775.22 1.674 1.277 1.674h2.627v2.511c0 1.059.922 1.28 1.695 1.28z"/><path d="M15.463 28.018c2.725 0 4.627-.93 4.627-2.266.009-.434-.08-.752-.255-.93a.59.59 0 00-.417-.175c-.12 0-.271.034-.433.075l-.037.016c-.813.343-1.58.664-2.596.664-1.59 0-2.503-1.04-2.503-2.86V9.925h4.332c.834 0 1.022-1.12 1.022-1.51 0-.16 0-.648-.834-.648h-4.52v-3.64c0-.847-.775-1.025-1.425-1.025-.533 0-1.426.133-1.426 1.025v3.64h-2.34c-.292 0-.835 0-.835 1.078 0 1.079.543 1.079.834 1.079h2.207v3.666c1.371.187 2.206 1.338 2.206 3.102 0 1.764-.834 2.89-2.206 3.074v3.72c0 2.838 1.72 4.53 4.6 4.53l-.001.003zM26.226 0c-.444 0-1.48.105-1.48 1.078v1.753c0 .939.928 1.079 1.48 1.079.686 0 1.507-.187 1.507-1.079V1.078C27.733.185 26.915 0 26.226 0zm0 7.497c-.444 0-1.48.105-1.48 1.078v18.149c0 .938.928 1.078 1.48 1.078.686 0 1.507-.187 1.507-1.078V8.575c0-.892-.818-1.078-1.507-1.078zm18.43-.217c-1.99 0-3.577.626-5.435 1.56l-1.183.748v-1.12c0-.852-.999-.943-1.426-.943-.503 0-1.345.12-1.345.943v26.454c0 .938.928 1.078 1.48 1.078.685 0 1.506-.187 1.506-1.078v-8.26l.958.45a9.983 9.983 0 003.91.933c5.15 0 7.886-3.665 7.886-10.597-.022-6.841-2.1-10.166-6.35-10.166v-.001zm-2.017 18.5h-.013a7.608 7.608 0 01-4.106-1.306l-.293-.2V11.57l.32-.197c1.455-.898 2.717-1.583 4.603-1.583 3.07 0 4.628 2.567 4.628 7.632 0 7.272-3.22 8.359-5.14 8.359zm13.01.369c.77.575 2.881 1.895 6.09 1.895 4.096 0 6.539-2.046 6.539-5.474-.027-3.152-2.77-4.462-5.424-5.73-2.29-1.093-4.45-2.125-4.45-4.329 0-1.831 1.38-2.967 3.606-2.967 1.875 0 3.07.81 3.649 2.476.15.454.575.755 1.036.736.587 0 1.423-.224 1.423-.836 0-.097 0-.23-.013-.3-.45-2.806-2.62-4.338-6.12-4.338-3.993 0-6.377 2.066-6.377 5.528 0 3.462 3.037 4.978 5.72 6.272 2.053.99 3.993 1.925 3.993 3.732 0 1.807-1.388 2.993-3.713 2.993-1.937 0-3.898-.868-5.087-1.68l-.04-.029a.854.854 0 00-.522-.175c-.454 0-.825.749-.834 1.247.022.39.22.753.527.978h-.003z"/></g><defs><clipPath id="clip0_1064_58931"><path fill="#fff" transform="translate(.723)" d="M0 0h67.556v36H0z"/></clipPath></defs></svg>