<svg width="21" height="20" fill="none" xmlns="http://www.w3.org/2000/svg"><path d="M20.133 15.352c.531.921.523 1.843-.024 2.765-.53.922-1.328 1.383-2.39 1.383H3.28c-1.062 0-1.867-.46-2.414-1.383-.531-.922-.531-1.844 0-2.765L8.79 1.5C9.164.828 9.734.492 10.5.492s1.336.336 1.71 1.008l7.923 13.852zM10.008 7.5v6h.984v-6h-.984zm.492 8.508c.203 0 .375-.07.516-.211a.741.741 0 00.234-.54.693.693 0 00-.234-.538.701.701 0 00-.516-.211.782.782 0 00-.54.21.73.73 0 00-.21.54c0 .203.07.383.21.539.157.14.337.21.54.21z" fill="#B71C1C"/></svg>