<svg width="56" height="56" fill="none" xmlns="http://www.w3.org/2000/svg"><path d="M17.5 44.361a.78.78 0 01-.328.657c-.192.191-.41.26-.656.205-1.696-.22-3.131-.985-4.307-2.297-1.149-1.313-1.723-2.858-1.723-4.635V17.209c0-1.777.574-3.322 1.723-4.635 1.176-1.312 2.611-2.078 4.307-2.297.246-.054.465.014.656.205a.78.78 0 01.328.657c0 .218-.082.41-.246.574a.77.77 0 01-.492.287 5.193 5.193 0 00-1.6.492 5.193 5.193 0 00-1.353.985 4.997 4.997 0 00-1.19 1.722 5.355 5.355 0 00-.369 1.969v21.123c0 .711.123 1.395.37 2.05.273.63.67 1.19 1.189 1.682.41.41.86.739 1.353.985.492.246 1.025.41 1.6.492a.77.77 0 01.492.287.787.787 0 01.246.574zm21.984-34.084c-.246-.054-.478.014-.697.205a.821.821 0 00-.287.657c0 .218.068.41.205.574.164.164.342.26.533.287a5.193 5.193 0 011.6.492c.492.246.943.574 1.353.985.52.492.903 1.066 1.149 1.722.273.63.41 1.285.41 1.969v21.123a5.28 5.28 0 01-.41 2.05 4.618 4.618 0 01-1.149 1.682c-.41.41-.86.739-1.353.985a5.193 5.193 0 01-1.6.492.939.939 0 00-.533.287.87.87 0 00-.205.574c0 .274.096.492.287.657.219.191.451.26.697.205 1.696-.22 3.118-.985 4.266-2.297 1.176-1.313 1.764-2.858 1.764-4.635V17.209c0-1.777-.588-3.322-1.764-4.635-1.148-1.312-2.57-2.078-4.266-2.297zm-2.132 25.184c.136.328.164.67.082 1.025a2.1 2.1 0 01-.493.903l-.984.984a2.14 2.14 0 01-.656.451 1.97 1.97 0 01-.698.123h-.163a2 2 0 01-.78-.246 1.763 1.763 0 01-.615-.574l-4.512-6.522-2.379 2.338.698 2.954c.054.3.04.601-.041.902-.082.3-.233.56-.452.78l-.902.86c-.164.192-.37.342-.615.452a1.968 1.968 0 01-.697.123h-.206a.363.363 0 00-.164-.041 1.861 1.861 0 01-.82-.37 1.959 1.959 0 01-.533-.738l-1.846-3.773-3.691-1.846a1.96 1.96 0 01-.739-.533 1.861 1.861 0 01-.369-.82 2.045 2.045 0 01.041-.903c.11-.3.274-.56.493-.78l.86-.901c.192-.165.397-.288.616-.37a1.81 1.81 0 01.738-.164h.165c.054 0 .122.014.204.041l2.83.698L34.892 16.43c.3-.301.642-.534 1.025-.698.383-.164.78-.246 1.19-.246.437 0 .847.082 1.23.246.383.165.71.397.984.698.301.3.533.642.698 1.025a2.991 2.991 0 010 2.379 3.25 3.25 0 01-.698 1.025l-5.127 5.045 3.159 9.557zm-1.641.533l-3.527-10.582 5.906-5.783a1.15 1.15 0 00.287-.451c.082-.164.123-.342.123-.534 0-.19-.041-.369-.123-.533a1.15 1.15 0 00-.287-.45 1.15 1.15 0 00-.451-.288 1.176 1.176 0 00-.534-.123c-.19 0-.369.041-.533.123a1.15 1.15 0 00-.45.287L22.257 31.441l-.944-.246-2.789-.697c-.027 0-.054.014-.082.041h-.04l-.862.902c-.027 0-.041.014-.041.041v.123c.027.028.055.041.082.041h.041l4.266 2.133.246.533 1.845 3.774.041.082v.082h.123c.028 0 .055-.014.083-.041l.86-.861.042-.041v-.082l-.656-2.872-.246-.984 4.593-4.512 1.19 1.723 4.47 6.563c.028 0 .042.013.042.04h.122c.028 0 .041-.013.041-.04l.985-.985c.027-.027.04-.055.04-.082v-.082zM16.803 21.311a2 2 0 00.246.779c.137.246.328.451.574.615l5.004 3.445 1.271-1.271-5.29-3.61-.042-.04v-.123c0-.028.014-.042.041-.042l.985-.984.04-.04h.123l6.727 2.255 1.395-1.395-7.588-2.543a1.351 1.351 0 00-.328-.04.91.91 0 00-.287-.042 1.72 1.72 0 00-.697.165 2.046 2.046 0 00-.616.369l-.984.984a1.801 1.801 0 00-.492.697c-.082.274-.11.547-.082.82z" fill="#56504C"/></svg>