<svg width="36" height="36" fill="none" xmlns="http://www.w3.org/2000/svg"><g filter="url(#filter0_d_1645_21633)"><rect x="2" y="1" width="32" height="32" rx="16" fill="#F3F0EF"/><path d="M22.5 17.254a.246.246 0 01-.082.176.225.225 0 01-.164.07h-3.75v3.75c0 .07-.027.129-.082.176a.238.238 0 01-.176.07.266.266 0 01-.176-.07.238.238 0 01-.07-.176V17.5h-3.75a.238.238 0 01-.176-.07.266.266 0 01-.07-.176c0-.07.023-.129.07-.176a.222.222 0 01.176-.082H18v-3.75c0-.062.023-.117.07-.164a.246.246 0 01.176-.082c.07 0 .129.027.176.082a.21.21 0 01.082.164v3.75h3.75a.21.21 0 01.164.082.222.222 0 01.082.176z" fill="#56504C"/><rect x="2.5" y="1.5" width="31" height="31" rx="15.5" stroke="#56504C"/></g><defs><filter id="filter0_d_1645_21633" x="0" y="0" width="36" height="36" filterUnits="userSpaceOnUse" color-interpolation-filters="sRGB"><feFlood flood-opacity="0" result="BackgroundImageFix"/><feColorMatrix in="SourceAlpha" values="0 0 0 0 0 0 0 0 0 0 0 0 0 0 0 0 0 0 127 0" result="hardAlpha"/><feOffset dy="1"/><feGaussianBlur stdDeviation="1"/><feColorMatrix values="0 0 0 0 0.356863 0 0 0 0 0.317647 0 0 0 0 0.286275 0 0 0 0.2 0"/><feBlend in2="BackgroundImageFix" result="effect1_dropShadow_1645_21633"/><feBlend in="SourceGraphic" in2="effect1_dropShadow_1645_21633" result="shape"/></filter></defs></svg>