<svg width="36" height="36" fill="none" xmlns="http://www.w3.org/2000/svg"><g filter="url(#filter0_d_1645_21638)"><rect x="2" y="1" width="32" height="32" rx="16" fill="#F3F0EF"/><path d="M23.256 17.62a.385.385 0 01-.123.28.358.358 0 01-.264.106h-9.738a.42.42 0 01-.281-.106.42.42 0 01-.106-.28c0-.095.035-.177.106-.247a.387.387 0 01.28-.123h9.74c.105 0 .192.041.263.123.082.07.123.152.123.246z" fill="#56504C"/><rect x="2.5" y="1.5" width="31" height="31" rx="15.5" stroke="#56504C"/></g><defs><filter id="filter0_d_1645_21638" x="0" y="0" width="36" height="36" filterUnits="userSpaceOnUse" color-interpolation-filters="sRGB"><feFlood flood-opacity="0" result="BackgroundImageFix"/><feColorMatrix in="SourceAlpha" values="0 0 0 0 0 0 0 0 0 0 0 0 0 0 0 0 0 0 127 0" result="hardAlpha"/><feOffset dy="1"/><feGaussianBlur stdDeviation="1"/><feColorMatrix values="0 0 0 0 0.356863 0 0 0 0 0.317647 0 0 0 0 0.286275 0 0 0 0.2 0"/><feBlend in2="BackgroundImageFix" result="effect1_dropShadow_1645_21638"/><feBlend in="SourceGraphic" in2="effect1_dropShadow_1645_21638" result="shape"/></filter></defs></svg>