<svg width="32" height="34" fill="none" xmlns="http://www.w3.org/2000/svg"><path d="M11.992 11.08h-.984v-.515c0-1.235.437-2.29 1.312-3.164.875-.89 1.938-1.336 3.188-1.336 1.234 0 2.289.445 3.164 1.336.89.875 1.336 1.93 1.336 3.164v.516H19v-.516c0-.969-.344-1.79-1.031-2.461-.672-.688-1.492-1.031-2.461-1.031-.969 0-1.797.343-2.485 1.03-.687.673-1.03 1.493-1.03 2.462v.516zm5.016 7.5c0-.421-.149-.773-.445-1.054a1.441 1.441 0 00-1.055-.445c-.422 0-.781.148-1.078.445a1.43 1.43 0 00-.422 1.055c0 .265.062.515.187.75.14.218.32.398.54.538l-.727 2.204h3l-.75-2.204c.219-.14.398-.32.539-.538.14-.235.21-.485.21-.75zm6-3.515v8.016c0 .828-.297 1.53-.89 2.109a2.833 2.833 0 01-2.11.89h-9c-.828 0-1.54-.296-2.133-.89a2.871 2.871 0 01-.867-2.11v-8.015c0-.828.289-1.531.867-2.11.594-.593 1.305-.89 2.133-.89h9c.828 0 1.531.297 2.11.89.593.579.89 1.282.89 2.11zm-1.008 0c0-.547-.195-1.016-.586-1.406a1.916 1.916 0 00-1.406-.586h-9c-.563 0-1.04.195-1.43.586-.39.39-.586.859-.586 1.406v8.016c0 .546.195 1.015.586 1.406.39.39.867.586 1.43.586h9a1.92 1.92 0 001.406-.586c.39-.39.586-.86.586-1.406v-8.016z" fill="#EC7000"/></svg>