<svg width="32" height="34" fill="none" xmlns="http://www.w3.org/2000/svg"><path d="M23.828 22.893c.11.11.164.25.164.422a.571.571 0 01-.164.422.654.654 0 01-.445.164.543.543 0 01-.399-.164L16 16.753l-6.984 6.984a.571.571 0 01-.422.164.571.571 0 01-.422-.164.624.624 0 01-.164-.422c0-.172.055-.312.164-.422l6.984-6.984-6.984-6.984a.571.571 0 01-.164-.422c0-.172.055-.313.164-.422a.624.624 0 01.422-.164c.172 0 .312.055.422.164L16 15.065l6.984-6.984c.11-.11.25-.164.422-.164s.313.055.422.164a.65.65 0 01.164.445c0 .156-.055.29-.164.399l-6.984 6.984 6.984 6.984z" fill="#EC7000"/></svg>