<svg width="20" height="21" fill="none" xmlns="http://www.w3.org/2000/svg"><path d="M10.096 20.063a9.47 9.47 0 01-4.828-1.29 9.832 9.832 0 01-3.445-3.445A9.34 9.34 0 01.51 10.5a9.34 9.34 0 011.313-4.828 9.832 9.832 0 013.445-3.445 9.47 9.47 0 014.828-1.29c1.735 0 3.344.43 4.829 1.29a9.64 9.64 0 013.421 3.445A9.34 9.34 0 0119.66 10.5a9.34 9.34 0 01-1.313 4.828 9.639 9.639 0 01-3.421 3.445 9.47 9.47 0 01-4.829 1.29zm-.28-6.68l4.734-4.735-1.172-1.171L8.9 11.953l-2.11-2.11-1.195 1.196 2.368 2.344c.25.25.554.375.914.375s.672-.125.937-.375z" fill="#008859"/></svg>