<svg width="20" height="21" fill="none" xmlns="http://www.w3.org/2000/svg"><path d="M7.008 17.508a.56.56 0 01-.375-.14.56.56 0 01-.14-.376V8.508H7.5v8.484a.56.56 0 01-.14.375.477.477 0 01-.352.14zm3.492-.516V8.508H9.492v8.484c0 .14.047.266.14.375a.56.56 0 00.376.14.45.45 0 00.328-.14.516.516 0 00.164-.375zm3 0V8.508h-1.008v8.484c0 .14.047.266.14.375a.56.56 0 00.376.14.45.45 0 00.328-.14.516.516 0 00.164-.375zm6-12.492v1.992a.992.992 0 01-.305.727.954.954 0 01-.703.281H1.5a1.04 1.04 0 01-.727-.281 1.034 1.034 0 01-.28-.727V4.5c0-.281.093-.516.28-.703a.992.992 0 01.727-.305h4.008V1.5c0-.281.094-.516.281-.703a.966.966 0 01.703-.305H13.5c.281 0 .516.102.703.305a.917.917 0 01.305.703v1.992h3.984c.281 0 .516.102.703.305a.917.917 0 01.305.703zM6.492 3.492H13.5V1.5H6.492v1.992zm12 1.008H1.5v1.992h16.992V4.5zM16.5 8.508v9c0 .547-.195 1.015-.586 1.406-.39.39-.86.586-1.406.586h-9c-.563 0-1.04-.195-1.43-.586a1.92 1.92 0 01-.586-1.406v-9h-.984v9c0 .828.289 1.531.867 2.11.594.593 1.305.89 2.133.89h9c.828 0 1.531-.297 2.11-.89.593-.579.89-1.282.89-2.11v-9H16.5z" fill="#56504C"/></svg>