<svg width="32" height="33" fill="none" xmlns="http://www.w3.org/2000/svg"><path d="M20.992 22.656a.56.56 0 01-.14.375.477.477 0 01-.352.14h-4.992a.56.56 0 01-.375-.14.56.56 0 01-.14-.375.45.45 0 01.14-.328.516.516 0 01.375-.164H20.5c.14 0 .258.054.352.164a.45.45 0 01.14.328zm-.492-3.492h-9a.444.444 0 00-.352.164.45.45 0 00-.14.328c0 .14.047.265.14.375.094.094.211.14.352.14h9c.14 0 .258-.046.352-.14a.56.56 0 00.14-.375.45.45 0 00-.14-.328.444.444 0 00-.352-.164zm0-3h-9a.444.444 0 00-.352.164.45.45 0 00-.14.328c0 .14.047.265.14.375.094.094.211.14.352.14h9c.14 0 .258-.046.352-.14a.56.56 0 00.14-.375.45.45 0 00-.14-.328.444.444 0 00-.352-.164zm-8.508-4.008h-3v13.008h14.016v-18H13v4.007a.97.97 0 01-.305.704.954.954 0 01-.703.28zm12-4.992v18a.917.917 0 01-.305.703.892.892 0 01-.68.304H8.993a.966.966 0 01-.703-.304.954.954 0 01-.281-.703V11.03c0-.11.015-.219.047-.328a.639.639 0 01.164-.282l2.976-3.867a.88.88 0 01.352-.281.903.903 0 01.445-.117h11.016c.265 0 .492.101.68.304a.917.917 0 01.304.704zm-15 4.007h3V7.164l-3 4.007z" fill="#EC7000"/></svg>