<svg width="18" height="32" fill="none" xmlns="http://www.w3.org/2000/svg"><path d="M16.828 21.984c.11.11.164.25.164.422a.57.57 0 01-.164.422.654.654 0 01-.445.164.542.542 0 01-.399-.164L9 15.844l-6.984 6.984a.571.571 0 01-.422.164.571.571 0 01-.422-.164.624.624 0 01-.164-.422.57.57 0 01.164-.422L8.156 15 1.172 8.016a.571.571 0 01-.164-.422c0-.172.054-.313.164-.422a.624.624 0 01.422-.164.57.57 0 01.422.164L9 14.156l6.984-6.984a.57.57 0 01.422-.164.57.57 0 01.422.164.65.65 0 01.164.445c0 .156-.055.29-.164.399L9.844 15l6.984 6.984z" fill="#EC7000"/></svg>