<svg width="48" height="48" fill="none" xmlns="http://www.w3.org/2000/svg"><path d="M38.45 30.777L26.565 10C26.004 8.992 25.148 8.488 24 8.488s-2.004.504-2.566 1.512L9.55 30.777c-.797 1.383-.797 2.766 0 4.149.82 1.383 2.027 2.074 3.62 2.074h21.657c1.594 0 2.79-.691 3.586-2.074.82-1.383.832-2.766.035-4.149zM23.261 19h1.476v9h-1.476v-9zM24 31.762c-.305 0-.574-.106-.809-.317a1.173 1.173 0 01-.316-.808c0-.328.105-.598.316-.809.235-.21.504-.316.809-.316.305 0 .563.105.773.316.235.211.352.48.352.809 0 .304-.117.574-.352.808a1.05 1.05 0 01-.773.317z" fill="#56504C"/></svg>