<svg width="14" height="19" fill="none" xmlns="http://www.w3.org/2000/svg"><path d="M10.832 13.156h.023v2.18a.926.926 0 01-.28.68.926.926 0 01-.68.28H4.129a.926.926 0 01-.68-.28.926.926 0 01-.281-.68v-2.18c0-.312-.133-.586-.398-.82a6.733 6.733 0 01-1.852-2.32 6.801 6.801 0 01-.656-2.954 6.55 6.55 0 01.937-3.421 6.57 6.57 0 012.414-2.438A6.513 6.513 0 017.012.266c1.218 0 2.343.312 3.375.937a6.751 6.751 0 012.437 2.438 6.682 6.682 0 01.914 3.421c0 1.047-.226 2.04-.68 2.977a6.552 6.552 0 01-1.828 2.297 1.02 1.02 0 00-.398.82zm-5.766 3.867H8.91v1.711H5.066v-1.71z" fill="#231D19"/></svg>