<svg xmlns="http://www.w3.org/2000/svg" viewBox="0 0 49 48"><path d="M26.2 34.9c.5-.4.7-1 .7-1.7v-.9H26c-1.9 0-3 .6-3 1.7 0 1 .7 1.5 1.8 1.5.3 0 .6-.1.8-.2.2-.1.4-.2.6-.4m16.5 2.8h-3.4v-1.3c-.8 1-1.8 1.6-3.3 1.6-2.5 0-4.1-1.8-4.1-4.5v-7.8h3.5v7.2c0 1.5.6 2.2 1.8 2.2 1.2 0 1.9-.9 1.9-2.4v-7.1h3.5l.1 12.1zM40.4 24h-5.9v-2l5.9-1v3zM30.2 37.7h-3.3v-1.3c-.2.2-.4.5-.6.6-.6.6-1.5.9-2.6.9-.9 0-1.8-.2-2.4-.6-.3-.2-.6-.4-.8-.7-.2-.2-.3-.4-.4-.6-.3-.5-.5-1.2-.5-1.9 0-.6.1-1.2.4-1.8.1-.3.3-.5.5-.7l.3-.3c1-.9 2.7-1.4 4.8-1.4h1.2c0-1.3-.9-2-2.5-2-1.3 0-2.7.3-4.1.9V26c1.4-.5 2.9-.8 4.6-.8 3.4 0 5.3 1.8 5.3 5.3v7.2h.1zm-11.7-9.3h-3.1v4.9c0 1.3.5 1.8 1.6 1.8.5 0 1-.1 1.3-.1v2.7c-.4.1-1.2.2-2.2.2-2.7 0-4.2-1.5-4.2-4.4v-5.1h-1.8v-2.7h1.8v-3l3.5-.6v3.6h3.1v2.7zm-9.3-6c0 1.2-.9 2-2.1 2-1.2 0-2.1-.8-2.1-2s.9-2 2.1-2c1.2 0 2.1.8 2.1 2zm-3.9 3.2h3.5v12H5.3v-12zM48 24c0-7-.7-13.6-1.7-17.8-.5-2.4-1.9-4-4.5-4.6C37.4.6 31 0 24 0S10.6.6 6.2 1.7c-2.6.6-4 2.1-4.5 4.5C.7 10.4 0 17 0 24s.7 13.6 1.7 17.8c.5 2.4 1.9 4 4.5 4.5C10.6 47.4 17 48 24 48s13.4-.6 17.8-1.7c2.7-.6 4.1-2.2 4.5-4.5C47.3 37.6 48 31 48 24" fill="#fff"/></svg>