<svg width="13" height="16" fill="none" xmlns="http://www.w3.org/2000/svg"><path d="M6.5.244c-.938 0-1.734.334-2.39 1.002a3.234 3.234 0 00-.985 2.373c0 .938.328 1.735.984 2.39.657.657 1.454.985 2.391.985.938 0 1.734-.328 2.39-.984.657-.656.985-1.453.985-2.39 0-.927-.328-1.718-.984-2.374A3.226 3.226 0 006.5.244zM5.006 8.506a4.518 4.518 0 00-3.2 1.318 4.458 4.458 0 00-.949 1.424 4.443 4.443 0 00-.351 1.758v1.125a1.112 1.112 0 001.125 1.125h9.738c.316 0 .58-.111.791-.334.223-.223.334-.487.334-.791v-1.125a4.442 4.442 0 00-1.318-3.182 4.442 4.442 0 00-3.182-1.318H5.006z" fill="#EC7000"/></svg>