<svg width="25" height="24" fill="none" xmlns="http://www.w3.org/2000/svg"><path d="M21.5 11.508a.493.493 0 01-.164.351.45.45 0 01-.328.141h-7.5v7.5c0 .14-.055.258-.164.352a.477.477 0 01-.352.14.532.532 0 01-.351-.14.477.477 0 01-.141-.352V12H5a.477.477 0 01-.352-.14.531.531 0 01-.14-.352c0-.14.047-.258.14-.352A.444.444 0 015 10.992h7.5v-7.5a.45.45 0 01.14-.328.493.493 0 01.352-.164c.14 0 .258.055.352.164a.42.42 0 01.164.328v7.5h7.5c.125 0 .234.055.328.164.11.094.164.211.164.352z" fill="#039"/></svg>