<svg version="1.1" id="Capa_1" xmlns="http://www.w3.org/2000/svg" x="0" y="0" viewBox="0 0 56 57" xml:space="preserve"><style>.st0{fill:#56504c}</style><path class="st0" d="M51.9 4.8c-1.8-2-3.9-3.2-6.5-3.5-.4-.1-.7 0-1.1.3-.3.3-.4.6-.4 1 0 .3.1.6.3.9.3.3.5.4.8.4.9.1 1.7.4 2.4.8s1.4.9 2.1 1.5c.8.8 1.4 1.6 1.8 2.6.4 1 .6 2 .6 3v32.3c0 1.1-.2 2.1-.6 3.1-.4 1-1 1.8-1.8 2.6-.6.6-1.3 1.1-2.1 1.5s-1.5.7-2.4.9c-.3 0-.6.2-.8.4-.2.3-.3.5-.3.9s.1.8.4 1c.3.3.7.4 1.1.3 2.6-.3 4.8-1.5 6.5-3.5 1.8-2 2.7-4.4 2.7-7.1V11.9c0-2.7-.9-5.1-2.7-7.1zm-47.7 4c.4-1 1-1.9 1.8-2.6.6-.6 1.3-1.1 2.1-1.5s1.6-.6 2.4-.8c.3 0 .5-.2.8-.4.3-.3.4-.5.4-.9s-.2-.8-.5-1c-.3-.3-.6-.4-1-.3-2.6.3-4.8 1.5-6.6 3.5C1.9 6.8 1 9.2 1 11.9v32.3c0 2.7.9 5.1 2.6 7.1 1.8 2 4 3.2 6.6 3.5.4.1.7 0 1-.3.3-.3.5-.6.5-1 0-.3-.1-.6-.4-.9-.2-.3-.5-.4-.8-.4-.9-.1-1.7-.4-2.4-.8s-1.4-.9-2.1-1.5c-.8-.8-1.4-1.6-1.8-2.6-.4-1-.6-2.1-.6-3.1V11.9c.1-1.1.3-2.1.6-3.1zm28.4 21.1H29v-3.6c0-.3-.1-.6-.4-.8-.2-.2-.5-.4-.8-.4-.3 0-.6.1-.9.4-.2.2-.3.5-.3.8v3.6H23c-.3 0-.6.1-.9.4-.2.2-.3.5-.3.8 0 .3.1.6.3.8.2.2.5.3.8.3h3.6v3.6c0 .3.1.6.3.8.2.2.5.3.8.3.3 0 .6-.1.8-.3.2-.2.4-.5.4-.8v-3.6h3.6c.3 0 .6-.1.8-.3.2-.2.4-.5.4-.8 0-.3-.1-.6-.4-.8 0-.3-.3-.4-.6-.4z"/><path class="st0" d="M38.1 18.7h-4.4v-4.4c0-1-.4-1.9-1-2.6-.7-.7-1.5-1-2.5-1h-4.8c-1 0-1.9.4-2.6 1-.7.7-1 1.6-1 2.6v4.4h-4.4c-1.4 0-2.6.5-3.6 1.5s-1.5 2.2-1.5 3.6v14.4c0 1.4.5 2.6 1.5 3.6s2.2 1.5 3.6 1.5h20.8c1.4 0 2.6-.5 3.6-1.5s1.5-2.2 1.5-3.6V23.9c0-1.4-.5-2.6-1.5-3.6s-2.2-1.6-3.7-1.6zm-12.7-5.6h4.8c.1 0 .3 0 .4.1.1.1.3.1.4.2.1.1.2.2.2.4.1.1.1.3.1.4v4.4h-7.2v-4.4c0-.2 0-.3.1-.4.1-.2.2-.3.3-.4.1-.1.2-.2.4-.3.2.1.3 0 .5 0zm13.8 27.8c-.3.1-.7.2-1 .2H17.4c-.4 0-.7-.1-1.1-.2l-.9-.6c-.3-.3-.5-.6-.6-.9-.1-.4-.2-.7-.2-1.1V23.9c0-.4.1-.7.2-1 .2-.4.4-.7.6-1 .3-.3.6-.5.9-.6.4-.2.7-.2 1.1-.2h20.8c.4 0 .7.1 1 .2.3.1.6.3.9.6.3.3.5.6.6 1 .2.3.2.7.2 1v14.4c0 .4-.1.7-.2 1.1-.1.3-.3.6-.6.9l-.9.6z"/></svg>