<svg width="56" height="57" fill="none" xmlns="http://www.w3.org/2000/svg"><path d="M12.25 17.709v21.082c0 .711.123 1.395.37 2.05.273.63.67 1.19 1.189 1.682.41.41.86.739 1.353.985.492.246 1.025.41 1.6.492a.77.77 0 01.492.287.787.787 0 01.246.574.78.78 0 01-.328.657c-.192.191-.41.26-.656.205-1.696-.22-3.131-.985-4.307-2.297-1.149-1.313-1.723-2.858-1.723-4.635V17.709c0-1.777.574-3.322 1.723-4.635 1.176-1.312 2.611-2.078 4.307-2.297.246-.054.465.014.656.205a.78.78 0 01.328.657c0 .218-.082.41-.246.574a.77.77 0 01-.492.287 5.193 5.193 0 00-1.6.492 5.193 5.193 0 00-1.353.985 4.997 4.997 0 00-1.19 1.722 5.465 5.465 0 00-.369 2.01zm27.234-6.932c-.246-.054-.478.014-.697.205a.821.821 0 00-.287.657c0 .218.068.41.205.574.164.164.342.26.533.287a5.193 5.193 0 011.6.492c.492.246.943.574 1.353.985.52.492.903 1.066 1.149 1.722.273.63.41 1.285.41 1.969v21.123a5.28 5.28 0 01-.41 2.05 4.618 4.618 0 01-1.149 1.682c-.41.41-.86.739-1.353.985a5.193 5.193 0 01-1.6.492.939.939 0 00-.533.287.87.87 0 00-.205.574c0 .274.096.492.287.657.219.191.451.26.697.205 1.696-.22 3.118-.985 4.266-2.297 1.176-1.313 1.764-2.858 1.764-4.635V17.709c0-1.777-.588-3.322-1.764-4.635-1.148-1.312-2.57-2.078-4.266-2.297zm-7.859 19.46c0 .13-.057.253-.17.367a.468.468 0 01-.343.146H28.5v2.612c0 .13-.057.253-.17.366a.468.468 0 01-.343.147.583.583 0 01-.39-.147.553.553 0 01-.147-.366V30.75h-2.588a.583.583 0 01-.39-.146.553.553 0 01-.147-.367c0-.146.049-.268.147-.366a.538.538 0 01.39-.17h2.588v-2.589c0-.146.049-.268.147-.366a.538.538 0 01.39-.17.44.44 0 01.342.17c.114.098.171.22.171.366V29.7h2.612a.44.44 0 01.342.171c.114.098.171.22.171.366zm6.25-4.687v9.375c0 .846-.31 1.579-.928 2.197a2.951 2.951 0 01-2.197.928H21.2c-.846 0-1.579-.31-2.197-.928-.619-.618-.928-1.35-.928-2.197V25.55c0-.863.31-1.595.928-2.198.618-.618 1.35-.927 2.197-.927h3.125V19.3c0-.586.204-1.083.61-1.49.407-.406.904-.61 1.49-.61h3.125a2 2 0 011.465.61c.407.407.61.904.61 1.49v3.125h3.125c.863 0 1.595.309 2.197.927.619.603.928 1.335.928 2.198zm-12.5-3.125h5.2V19.3a.984.984 0 00-.073-.39.95.95 0 00-.562-.562.867.867 0 00-.39-.098h-3.125a.916.916 0 00-.415.098c-.114.049-.22.122-.318.22a1.304 1.304 0 00-.244.341.984.984 0 00-.073.39v3.126zm11.45 3.125c0-.277-.057-.537-.17-.781a2.148 2.148 0 00-.44-.708 1.898 1.898 0 00-.684-.44 1.825 1.825 0 00-.781-.17H21.2c-.276 0-.545.056-.805.17a1.952 1.952 0 00-.66.44c-.195.211-.35.447-.463.708a2.083 2.083 0 00-.147.78v9.376c0 .277.049.545.146.806a2.324 2.324 0 001.124 1.122c.26.098.529.147.805.147h13.55c.277 0 .537-.049.781-.147.26-.113.489-.268.684-.463a1.95 1.95 0 00.44-.66 2 2 0 00.17-.805V25.55z" fill="#56504C"/><path fill-rule="evenodd" clip-rule="evenodd" d="M26.425 17.45c-.521 0-.954.178-1.313.537a1.78 1.78 0 00-.537 1.313v3.375H21.2c-.777 0-1.447.281-2.02.854l-.003.003a2.702 2.702 0 00-.852 2.018v9.375c0 .777.281 1.447.855 2.02.573.574 1.243.855 2.02.855h13.55c.795 0 1.463-.282 2.018-.852l.002-.003c.574-.573.855-1.243.855-2.02V25.55c0-.795-.282-1.463-.852-2.018l-.005-.005a2.702 2.702 0 00-2.018-.852h-3.375V19.3c0-.521-.178-.954-.537-1.313a1.749 1.749 0 00-1.288-.537h-3.125zm-1.666.184a2.276 2.276 0 011.666-.684h3.125c.636 0 1.188.23 1.641.684.455.454.684 1.015.684 1.666v2.875h2.875a3.2 3.2 0 012.374 1 3.2 3.2 0 011.001 2.375v9.375c0 .914-.337 1.71-1 2.373A3.2 3.2 0 0134.75 38.3H21.2c-.915 0-1.71-.337-2.374-1.001-.663-.664-1-1.46-1-2.374V25.55a3.2 3.2 0 011.001-2.375c.664-.663 1.459-1 2.373-1h2.875V19.3c0-.651.229-1.212.684-1.666zm1.145.487c.164-.08.338-.121.52-.121h3.126c.169 0 .333.042.49.118a1.197 1.197 0 01.694.698c.063.149.091.312.091.484v3.375h-5.7V19.3c0-.175.03-.34.093-.49l.003-.006.004-.007c.076-.153.173-.289.29-.406.116-.116.246-.208.39-.27zm.52.379a.665.665 0 00-.302.071l-.007.003-.007.003a.764.764 0 00-.239.167 1.05 1.05 0 00-.194.27.743.743 0 00-.05.286v2.875h4.7V19.3a.735.735 0 00-.053-.292l-.004-.01a.697.697 0 00-.415-.416l-.013-.005-.011-.006a.616.616 0 00-.28-.071h-3.124zm-6.126 4.89c.29-.126.591-.19.902-.19h13.55c.309 0 .602.063.878.19.29.11.545.275.764.494l.007.007c.214.232.377.493.486.78.127.276.19.57.19.879v9.375c0 .31-.064.612-.19.902a2.2 2.2 0 01-.493.74 2.46 2.46 0 01-.76.516l-.008.003c-.275.11-.567.164-.874.164H21.2c-.307 0-.605-.054-.893-.162l-.01-.004-.008-.004a2.556 2.556 0 01-.73-.514 2.556 2.556 0 01-.514-.73l-.004-.009-.004-.009a2.527 2.527 0 01-.162-.893V25.55c0-.307.054-.6.164-.874l.003-.008a2.81 2.81 0 01.51-.777l.006-.007c.218-.217.464-.383.74-.494zm.902.31c-.241 0-.476.05-.705.15l-.008.003a1.7 1.7 0 00-.571.38c-.175.19-.312.4-.414.632-.084.212-.127.44-.127.685v9.375c0 .243.042.479.127.709.101.213.237.406.41.579.173.173.366.309.58.41.23.085.465.127.708.127h13.55c.245 0 .473-.043.685-.127a1.96 1.96 0 00.603-.41c.173-.173.3-.364.384-.575l.003-.008c.1-.23.15-.464.15-.705V25.55c0-.241-.05-.466-.147-.676l-.004-.008-.004-.01a1.899 1.899 0 00-.385-.622 1.65 1.65 0 00-.591-.379l-.01-.003-.008-.004a1.575 1.575 0 00-.676-.148H21.2zm6.787 3.125a.289.289 0 00-.213.098.247.247 0 00-.074.19v2.837h-2.838a.289.289 0 00-.213.098.247.247 0 00-.074.19c0 .057.019.118.074.188a.33.33 0 00.213.074H27.7v2.862c0 .058.019.12.074.189a.33.33 0 00.213.074.22.22 0 00.165-.073c.08-.08.098-.14.098-.19V30.5h2.862a.22.22 0 00.165-.073c.08-.08.098-.14.098-.19a.214.214 0 00-.084-.176l-.014-.013-.013-.014c-.058-.068-.106-.084-.152-.084H28.25v-2.838a.214.214 0 00-.084-.176l-.014-.013-.013-.014c-.058-.068-.106-.084-.152-.084zm-.567-.256a.787.787 0 01.567-.244c.209 0 .384.093.52.244a.71.71 0 01.243.543v2.338h2.362c.209 0 .384.093.52.244a.71.71 0 01.243.543.762.762 0 01-.244.543.718.718 0 01-.519.22H28.75v2.362a.762.762 0 01-.244.543.718.718 0 01-.519.22.833.833 0 01-.553-.207l-.015-.012-.012-.015a.802.802 0 01-.207-.529V31h-2.338a.833.833 0 01-.553-.207l-.015-.012-.012-.015a.802.802 0 01-.207-.529c0-.208.072-.395.22-.543a.787.787 0 01.567-.244H27.2v-2.338c0-.208.072-.395.22-.543z" fill="#56504C"/></svg>