<svg xmlns="http://www.w3.org/2000/svg" viewBox="0 0 119 114.2"><path d="M97.5 88.9c0 .8-.3 1.4-.8 1.9s-1.1.8-1.9.8h-8v8c0 .8-.3 1.4-.9 1.9-.5.6-1.1.9-1.8.9-.8 0-1.4-.3-2-.9-.5-.5-.8-1.1-.8-1.9v-8h-8c-.8 0-1.4-.3-1.9-.8s-.8-1.1-.8-1.9c0-.8.3-1.4.8-1.9s1.1-.8 1.9-.8h8v-8c0-.8.3-1.4.8-1.9.6-.6 1.3-.9 2-.9s1.3.3 1.8.9c.6.5.9 1.1.9 1.9v8h8c.8 0 1.4.3 1.9.8s.8 1.2.8 1.9zm20.2 18.5c-.5.8-1.1 1.6-1.8 2.3-.6.7-1.3 1.3-2.1 1.8-.8.6-1.8 1-2.8 1.3-.9.3-1.9.4-2.9.4H60c-1 0-2-.1-2.9-.4-.9-.3-1.8-.7-2.8-1.3-.8-.5-1.5-1.1-2.1-1.8-.6-.7-1.1-1.4-1.6-2.3-.4-.8-.8-1.6-1-2.5-.2-.9-.3-1.8-.3-2.8 0-1 .1-2 .4-3 .3-.9.8-1.8 1.4-2.6L75.2 59v-.1c1-1.5 2.3-2.7 3.9-3.5 1.6-.8 3.3-1.3 5-1.3 1.8 0 3.6.4 5.1 1.3s2.9 2 3.9 3.5v.1l24.1 37.4c.6.8 1 1.7 1.3 2.6.3 1 .5 2 .5 3 0 .9-.1 1.8-.4 2.8-.1 1-.4 1.8-.9 2.6zm-5-8.1L88.6 61.9c-.5-.8-1.2-1.5-2-1.9-.8-.4-1.5-.6-2.4-.6-.9 0-1.8.2-2.6.6-.8.4-1.4 1-1.9 1.9L55.6 99.3c-1.2 1.8-1.3 3.7-.3 5.5 1 1.8 2.6 2.8 4.8 2.8h48.2c2.1 0 3.6-.9 4.6-2.8 1.1-1.8 1-3.6-.2-5.5zM107.1 33L64.4 3.3C61.5 1.5 58.2.5 54.7.5s-6.8.9-9.8 2.8L2.4 33c-.7.4-1.1 1-1.3 1.8-.1.7 0 1.3.4 2 .4.6 1 1 1.6 1.1.8.2 1.5 0 2.1-.4L47.8 7.8c2.1-1.3 4.4-1.9 6.8-1.9 2.5 0 4.8.6 6.9 1.9l42.7 29.8c.4.3 1 .5 1.8.5.8-.1 1.4-.5 1.9-1.3.4-.6.5-1.3.4-2-.3-.8-.6-1.3-1.2-1.8zM46.6 93.5l1.3-2H44V64.8h21l3-4.6c-.3-.3-.8-.4-1.3-.5-.4-.2-.9-.3-1.4-.3H43.9c-1.4 0-2.7.5-3.8 1.6-1 1-1.5 2.3-1.5 3.8v26.7H27.9c-2.9 0-5.4-1-7.5-3.1-2.1-2.1-3.1-4.6-3.1-7.5V45.3l30.6-21.5c2.1-1.3 4.4-1.9 6.8-1.9 2.5 0 4.8.6 6.9 1.9l30.6 21.5v5.5c1.1.6 2.1 1.3 3 2.3.9.8 1.7 1.8 2.4 2.8V42.6L64.4 19.4c-2.9-1.8-6.2-2.8-9.7-2.8s-6.8.9-9.8 2.8L11.8 42.6v38.3c0 4.4 1.5 8.2 4.6 11.4 3.2 3.1 7 4.6 11.4 4.6h17.1c.2-.6.4-1.1.6-1.6.4-.6.7-1.2 1.1-1.8z" fill="#039"/></svg>