<svg width="21" height="20" viewBox="0 0 21 20" fill="none" xmlns="http://www.w3.org/2000/svg">
<path d="M20.1328 15.3516C20.6641 16.2734 20.6562 17.1953 20.1094 18.1172C19.5781 19.0391 18.7812 19.5 17.7188 19.5H3.28125C2.21875 19.5 1.41406 19.0391 0.867188 18.1172C0.335938 17.1953 0.335938 16.2734 0.867188 15.3516L8.78906 1.5C9.16406 0.828125 9.73438 0.492188 10.5 0.492188C11.2656 0.492188 11.8359 0.828125 12.2109 1.5L20.1328 15.3516ZM10.0078 7.5V13.5H10.9922V7.5H10.0078ZM10.5 16.0078C10.7031 16.0078 10.875 15.9375 11.0156 15.7969C11.1719 15.6406 11.25 15.4609 11.25 15.2578C11.25 15.0391 11.1719 14.8594 11.0156 14.7188C10.875 14.5781 10.7031 14.5078 10.5 14.5078C10.2969 14.5078 10.1172 14.5781 9.96094 14.7188C9.82031 14.8594 9.75 15.0391 9.75 15.2578C9.75 15.4609 9.82031 15.6406 9.96094 15.7969C10.1172 15.9375 10.2969 16.0078 10.5 16.0078Z" fill="#B71C1C"/>
</svg>
