<?xml version="1.0" encoding="UTF-8"?>
<svg id="Capa_2" data-name="Capa 2" xmlns="http://www.w3.org/2000/svg" viewBox="0 0 74.43 74.34">
  <defs>
    <style>
      .cls-1 {
        fill: #56504c;
        opacity: .94;
        stroke-width: 0px;
      }
    </style>
  </defs>
  <g id="Capa_1-2" data-name="Capa 1">
    <path class="cls-1" d="M14.9,72.47c0,.58-.23,1.05-.7,1.39-.41.41-.87.55-1.39.44-3.6-.46-6.65-2.09-9.15-4.88-2.44-2.79-3.66-6.07-3.66-9.85V14.77c0-3.78,1.22-7.06,3.66-9.85C6.16,2.13,9.21.5,12.81.04c.52-.12.99.03,1.39.44.46.35.7.81.7,1.39,0,.46-.17.87-.52,1.22-.29.35-.64.55-1.05.61-1.22.17-2.35.52-3.4,1.05-1.05.52-2,1.22-2.88,2.09-1.1,1.05-1.95,2.27-2.53,3.66-.52,1.34-.78,2.73-.78,4.18v44.89c0,1.51.26,2.96.78,4.36.58,1.34,1.42,2.53,2.53,3.57.87.87,1.83,1.57,2.88,2.09,1.05.52,2.18.87,3.4,1.05.41.06.76.26,1.05.61.35.35.52.76.52,1.22ZM61.62.04c-.52-.12-1.02.03-1.48.44-.41.35-.61.81-.61,1.39,0,.46.15.87.44,1.22.35.35.73.55,1.13.61,1.22.17,2.35.52,3.4,1.05,1.05.52,2,1.22,2.88,2.09,1.1,1.05,1.92,2.27,2.44,3.66.58,1.34.87,2.73.87,4.18v44.89c0,1.51-.29,2.96-.87,4.36-.52,1.34-1.34,2.53-2.44,3.57-.87.87-1.83,1.57-2.88,2.09-1.05.52-2.18.87-3.4,1.05-.41.06-.78.26-1.13.61-.29.35-.44.76-.44,1.22,0,.58.2,1.05.61,1.39.46.41.96.55,1.48.44,3.6-.46,6.62-2.09,9.06-4.88,2.5-2.79,3.75-6.07,3.75-9.85V14.77c0-3.78-1.25-7.06-3.75-9.85-2.44-2.79-5.46-4.42-9.06-4.88ZM57.09,53.55c.29.7.35,1.42.17,2.18-.17.7-.52,1.34-1.05,1.92l-2.09,2.09c-.41.41-.87.73-1.39.96-.46.17-.96.26-1.48.26h-.35c-.58-.06-1.13-.23-1.66-.52-.52-.29-.96-.7-1.31-1.22l-9.59-13.86-5.06,4.97,1.48,6.28c.12.64.09,1.28-.09,1.92-.17.64-.49,1.19-.96,1.66l-1.92,1.83c-.35.41-.78.73-1.31.96-.46.17-.96.26-1.48.26h-.44c-.12-.06-.23-.09-.35-.09-.64-.12-1.22-.38-1.74-.78-.52-.46-.9-.99-1.13-1.57l-3.92-8.02-7.84-3.92c-.58-.23-1.1-.61-1.57-1.13-.41-.52-.67-1.1-.78-1.74-.12-.64-.09-1.28.09-1.92.23-.64.58-1.19,1.05-1.66l1.83-1.92c.41-.35.84-.61,1.31-.78.52-.23,1.05-.35,1.57-.35h.35c.12,0,.26.03.44.09l6.01,1.48,27.98-27.8c.64-.64,1.37-1.13,2.18-1.48.81-.35,1.66-.52,2.53-.52.93,0,1.8.17,2.61.52.81.35,1.51.84,2.09,1.48.64.64,1.13,1.37,1.48,2.18.35.81.52,1.66.52,2.53s-.17,1.71-.52,2.53c-.35.81-.84,1.54-1.48,2.18l-10.89,10.72,6.71,20.31ZM53.6,54.69l-7.5-22.49,12.55-12.29c.29-.29.49-.61.61-.96.17-.35.26-.73.26-1.13s-.09-.78-.26-1.13c-.12-.35-.32-.67-.61-.96-.29-.29-.61-.49-.96-.61-.35-.17-.73-.26-1.13-.26s-.78.09-1.13.26c-.35.12-.67.32-.96.61l-29.46,29.29-2-.52-5.93-1.48c-.06,0-.12.03-.17.09h-.09l-1.83,1.92c-.06,0-.09.03-.09.09v.26c.06.06.12.09.17.09h.09l9.06,4.53.52,1.13,3.92,8.02.09.17v.17h.26c.06,0,.12-.03.17-.09l1.83-1.83c.06-.06.09-.09.09-.09v-.17l-1.39-6.1-.52-2.09,9.76-9.59,2.53,3.66,9.5,13.95c.06,0,.09.03.09.09h.26c.06,0,.09-.03.09-.09l2.09-2.09c.06-.06.09-.12.09-.17v-.17ZM13.42,23.48c.06.58.23,1.13.52,1.66.29.52.7.96,1.22,1.31l10.63,7.32,2.7-2.7-11.24-7.67c-.06-.06-.09-.09-.09-.09v-.26c0-.06.03-.09.09-.09l2.09-2.09c.06-.06.09-.09.09-.09h.26l14.29,4.79,2.96-2.96-16.12-5.4c-.23-.06-.46-.09-.7-.09-.17-.06-.38-.09-.61-.09-.46,0-.96.12-1.48.35-.46.17-.9.44-1.31.78l-2.09,2.09c-.46.41-.81.9-1.05,1.48-.17.58-.23,1.16-.17,1.74Z"/>
  </g>
</svg>