<svg width="56" height="56" viewBox="0 0 56 56" fill="none" xmlns="http://www.w3.org/2000/svg">
<path d="M17.5 44.3613C17.5 44.6348 17.3906 44.8535 17.1719 45.0176C16.9805 45.209 16.7617 45.2773 16.5156 45.2227C14.8203 45.0039 13.3848 44.2383 12.209 42.9258C11.0605 41.6133 10.4863 40.0684 10.4863 38.291V17.209C10.4863 15.4316 11.0605 13.8867 12.209 12.5742C13.3848 11.2617 14.8203 10.4961 16.5156 10.2773C16.7617 10.2227 16.9805 10.291 17.1719 10.4824C17.3906 10.6465 17.5 10.8652 17.5 11.1387C17.5 11.3574 17.418 11.5488 17.2539 11.7129C17.1172 11.877 16.9531 11.9727 16.7617 12C16.1875 12.082 15.6543 12.2461 15.1621 12.4922C14.6699 12.7383 14.2188 13.0664 13.8086 13.4766C13.2891 13.9688 12.8926 14.543 12.6191 15.1992C12.373 15.8281 12.25 16.4844 12.25 17.168V38.291C12.25 39.002 12.373 39.6855 12.6191 40.3418C12.8926 40.9707 13.2891 41.5312 13.8086 42.0234C14.2188 42.4336 14.6699 42.7617 15.1621 43.0078C15.6543 43.2539 16.1875 43.418 16.7617 43.5C16.9531 43.5273 17.1172 43.623 17.2539 43.7871C17.418 43.9512 17.5 44.1426 17.5 44.3613ZM39.4844 10.2773C39.2383 10.2227 39.0059 10.291 38.7871 10.4824C38.5957 10.6465 38.5 10.8652 38.5 11.1387C38.5 11.3574 38.5684 11.5488 38.7051 11.7129C38.8691 11.877 39.0469 11.9727 39.2383 12C39.8125 12.082 40.3457 12.2461 40.8379 12.4922C41.3301 12.7383 41.7812 13.0664 42.1914 13.4766C42.7109 13.9688 43.0938 14.543 43.3398 15.1992C43.6133 15.8281 43.75 16.4844 43.75 17.168V38.291C43.75 39.002 43.6133 39.6855 43.3398 40.3418C43.0938 40.9707 42.7109 41.5312 42.1914 42.0234C41.7812 42.4336 41.3301 42.7617 40.8379 43.0078C40.3457 43.2539 39.8125 43.418 39.2383 43.5C39.0469 43.5273 38.8691 43.623 38.7051 43.7871C38.5684 43.9512 38.5 44.1426 38.5 44.3613C38.5 44.6348 38.5957 44.8535 38.7871 45.0176C39.0059 45.209 39.2383 45.2773 39.4844 45.2227C41.1797 45.0039 42.6016 44.2383 43.75 42.9258C44.9258 41.6133 45.5137 40.0684 45.5137 38.291V17.209C45.5137 15.4316 44.9258 13.8867 43.75 12.5742C42.6016 11.2617 41.1797 10.4961 39.4844 10.2773ZM37.3516 35.4609C37.4883 35.7891 37.5156 36.1309 37.4336 36.4863C37.3516 36.8145 37.1875 37.1152 36.9414 37.3887L35.957 38.373C35.7656 38.5645 35.5469 38.7148 35.3008 38.8242C35.082 38.9062 34.8496 38.9473 34.6035 38.9473C34.5762 38.9473 34.5488 38.9473 34.5215 38.9473C34.4941 38.9473 34.4668 38.9473 34.4395 38.9473C34.166 38.9199 33.9062 38.8379 33.6602 38.7012C33.4141 38.5645 33.209 38.373 33.0449 38.127L28.5332 31.6055L26.1543 33.9434L26.8516 36.8965C26.9062 37.1973 26.8926 37.498 26.8105 37.7988C26.7285 38.0996 26.5781 38.3594 26.3594 38.5781L25.457 39.4395C25.293 39.6309 25.0879 39.7812 24.8418 39.8906C24.623 39.9727 24.3906 40.0137 24.1445 40.0137C24.0898 40.0137 24.0215 40.0137 23.9395 40.0137C23.8848 39.9863 23.8301 39.9727 23.7754 39.9727C23.4746 39.918 23.2012 39.7949 22.9551 39.6035C22.709 39.3848 22.5312 39.1387 22.4219 38.8652L20.5762 35.0918L16.8848 33.2461C16.6113 33.1367 16.3652 32.959 16.1465 32.7129C15.9551 32.4668 15.832 32.1934 15.7773 31.8926C15.7227 31.5918 15.7363 31.291 15.8184 30.9902C15.9277 30.6895 16.0918 30.4297 16.3105 30.2109L17.1719 29.3086C17.3633 29.1445 17.5684 29.0215 17.7871 28.9395C18.0332 28.8301 18.2793 28.7754 18.5254 28.7754C18.5801 28.7754 18.6348 28.7754 18.6895 28.7754C18.7441 28.7754 18.8125 28.7891 18.8945 28.8164L21.7246 29.5137L34.8906 16.4297C35.1914 16.1289 35.5332 15.8965 35.916 15.7324C36.2988 15.5684 36.6953 15.4863 37.1055 15.4863C37.543 15.4863 37.9531 15.5684 38.3359 15.7324C38.7188 15.8965 39.0469 16.1289 39.3203 16.4297C39.6211 16.7305 39.8535 17.0723 40.0176 17.4551C40.1816 17.8379 40.2637 18.2344 40.2637 18.6445C40.2637 19.0547 40.1816 19.4512 40.0176 19.834C39.8535 20.2168 39.6211 20.5586 39.3203 20.8594L34.1934 25.9043L37.3516 35.4609ZM35.7109 35.9941L32.1836 25.4121L38.0898 19.6289C38.2266 19.4922 38.3223 19.3418 38.377 19.1777C38.459 19.0137 38.5 18.8359 38.5 18.6445C38.5 18.4531 38.459 18.2754 38.377 18.1113C38.3223 17.9473 38.2266 17.7969 38.0898 17.6602C37.9531 17.5234 37.8027 17.4277 37.6387 17.373C37.4746 17.291 37.2969 17.25 37.1055 17.25C36.9141 17.25 36.7363 17.291 36.5723 17.373C36.4082 17.4277 36.2578 17.5234 36.1211 17.6602L22.2578 31.4414L21.3145 31.1953L18.5254 30.498C18.498 30.498 18.4707 30.5117 18.4434 30.5391C18.4434 30.5391 18.4297 30.5391 18.4023 30.5391L17.541 31.4414C17.5137 31.4414 17.5 31.4551 17.5 31.4824C17.5 31.5098 17.5 31.5371 17.5 31.5645C17.5 31.5645 17.5 31.5781 17.5 31.6055C17.5273 31.6328 17.5547 31.6465 17.582 31.6465H17.623L21.8887 33.7793L22.1348 34.3125L23.9805 38.0859L24.0215 38.168C24.0215 38.1953 24.0215 38.2227 24.0215 38.25C24.0488 38.25 24.0762 38.25 24.1035 38.25C24.1309 38.25 24.1445 38.25 24.1445 38.25C24.1719 38.25 24.1992 38.2363 24.2266 38.209L25.0879 37.3477C25.1152 37.3203 25.1289 37.3066 25.1289 37.3066C25.1289 37.2793 25.1289 37.252 25.1289 37.2246L24.4727 34.3535L24.2266 33.3691L28.8203 28.8574L30.0098 30.5801L34.4805 37.1426C34.5078 37.1426 34.5215 37.1562 34.5215 37.1836C34.5488 37.1836 34.5762 37.1836 34.6035 37.1836C34.6309 37.1836 34.6445 37.1836 34.6445 37.1836C34.6719 37.1836 34.6855 37.1699 34.6855 37.1426L35.6699 36.1582C35.6973 36.1309 35.7109 36.1035 35.7109 36.0762C35.7109 36.0488 35.7109 36.0215 35.7109 35.9941ZM16.8027 21.3105C16.8301 21.584 16.9121 21.8438 17.0488 22.0898C17.1855 22.3359 17.377 22.541 17.623 22.7051L22.627 26.1504L23.8984 24.8789L18.6074 21.2695C18.5801 21.2422 18.5664 21.2285 18.5664 21.2285C18.5664 21.2012 18.5664 21.1738 18.5664 21.1465C18.5664 21.1465 18.5664 21.1328 18.5664 21.1055C18.5664 21.0781 18.5801 21.0645 18.6074 21.0645L19.5918 20.0801C19.6191 20.0527 19.6328 20.0391 19.6328 20.0391C19.6602 20.0391 19.6875 20.0391 19.7148 20.0391C19.7148 20.0391 19.7285 20.0391 19.7559 20.0391L26.4824 22.2949L27.877 20.9004L20.2891 18.3574C20.1797 18.3301 20.0703 18.3164 19.9609 18.3164C19.8789 18.2891 19.7832 18.2754 19.6738 18.2754C19.4551 18.2754 19.2227 18.3301 18.9766 18.4395C18.7578 18.5215 18.5527 18.6445 18.3613 18.8086L17.377 19.793C17.1582 19.9844 16.9941 20.2168 16.8848 20.4902C16.8027 20.7637 16.7754 21.0371 16.8027 21.3105Z" fill="#56504C"/>
</svg>
