<svg width="36" height="36" viewBox="0 0 36 36" fill="none" xmlns="http://www.w3.org/2000/svg">
<g filter="url(#filter0_d_1645_21638)">
<rect x="2" y="1" width="32" height="32" rx="16" fill="#F3F0EF"/>
<path d="M23.2559 17.6191C23.2559 17.7246 23.2148 17.8184 23.1328 17.9004C23.0625 17.9707 22.9746 18.0059 22.8691 18.0059H13.1309C13.0254 18.0059 12.9316 17.9707 12.8496 17.9004C12.7793 17.8184 12.7441 17.7246 12.7441 17.6191C12.7441 17.5254 12.7793 17.4434 12.8496 17.373C12.9316 17.291 13.0254 17.25 13.1309 17.25H22.8691C22.9746 17.25 23.0625 17.291 23.1328 17.373C23.2148 17.4434 23.2559 17.5254 23.2559 17.6191Z" fill="#56504C"/>
<rect x="2.5" y="1.5" width="31" height="31" rx="15.5" stroke="#56504C"/>
</g>
<defs>
<filter id="filter0_d_1645_21638" x="0" y="0" width="36" height="36" filterUnits="userSpaceOnUse" color-interpolation-filters="sRGB">
<feFlood flood-opacity="0" result="BackgroundImageFix"/>
<feColorMatrix in="SourceAlpha" type="matrix" values="0 0 0 0 0 0 0 0 0 0 0 0 0 0 0 0 0 0 127 0" result="hardAlpha"/>
<feOffset dy="1"/>
<feGaussianBlur stdDeviation="1"/>
<feColorMatrix type="matrix" values="0 0 0 0 0.356863 0 0 0 0 0.317647 0 0 0 0 0.286275 0 0 0 0.2 0"/>
<feBlend mode="normal" in2="BackgroundImageFix" result="effect1_dropShadow_1645_21638"/>
<feBlend mode="normal" in="SourceGraphic" in2="effect1_dropShadow_1645_21638" result="shape"/>
</filter>
</defs>
</svg>
