<svg width="36" height="36" viewBox="0 0 36 36" fill="none" xmlns="http://www.w3.org/2000/svg">
<g filter="url(#filter0_d_1645_21633)">
<rect x="2" y="1" width="32" height="32" rx="16" fill="#F3F0EF"/>
<path d="M22.5 17.2539C22.5 17.3164 22.4727 17.375 22.418 17.4297C22.3711 17.4766 22.3164 17.5 22.2539 17.5H18.5039V21.25C18.5039 21.3203 18.4766 21.3789 18.4219 21.4258C18.375 21.4727 18.3164 21.4961 18.2461 21.4961C18.1836 21.4961 18.125 21.4727 18.0703 21.4258C18.0234 21.3789 18 21.3203 18 21.25V17.5H14.25C14.1797 17.5 14.1211 17.4766 14.0742 17.4297C14.0273 17.375 14.0039 17.3164 14.0039 17.2539C14.0039 17.1836 14.0273 17.125 14.0742 17.0781C14.1211 17.0234 14.1797 16.9961 14.25 16.9961H18V13.2461C18 13.1836 18.0234 13.1289 18.0703 13.082C18.125 13.0273 18.1836 13 18.2461 13C18.3164 13 18.375 13.0273 18.4219 13.082C18.4766 13.1289 18.5039 13.1836 18.5039 13.2461V16.9961H22.2539C22.3164 16.9961 22.3711 17.0234 22.418 17.0781C22.4727 17.125 22.5 17.1836 22.5 17.2539Z" fill="#56504C"/>
<rect x="2.5" y="1.5" width="31" height="31" rx="15.5" stroke="#56504C"/>
</g>
<defs>
<filter id="filter0_d_1645_21633" x="0" y="0" width="36" height="36" filterUnits="userSpaceOnUse" color-interpolation-filters="sRGB">
<feFlood flood-opacity="0" result="BackgroundImageFix"/>
<feColorMatrix in="SourceAlpha" type="matrix" values="0 0 0 0 0 0 0 0 0 0 0 0 0 0 0 0 0 0 127 0" result="hardAlpha"/>
<feOffset dy="1"/>
<feGaussianBlur stdDeviation="1"/>
<feColorMatrix type="matrix" values="0 0 0 0 0.356863 0 0 0 0 0.317647 0 0 0 0 0.286275 0 0 0 0.2 0"/>
<feBlend mode="normal" in2="BackgroundImageFix" result="effect1_dropShadow_1645_21633"/>
<feBlend mode="normal" in="SourceGraphic" in2="effect1_dropShadow_1645_21633" result="shape"/>
</filter>
</defs>
</svg>
