<svg width="104" height="113" fill="none" xmlns="http://www.w3.org/2000/svg"><path d="M2 38.5C9.434 17.245 29.666 2 53.457 2 73.11 2 90.333 12.402 99.921 28M5.547 82.5C14.78 99.477 32.773 111 53.457 111c20.685 0 38.678-11.523 47.911-28.5" stroke="#EC7000" stroke-width="4" stroke-linecap="round"/><path d="M69 49v-4c0-3.3-2.7-6-6-6H47c-3.3 0-6 2.7-6 6v4c-3.3 0-6 2.7-6 6v10c0 3.3 2.7 6 6 6v4h4v-4h20v4h4v-4c3.3 0 6-2.7 6-6V55c0-3.3-2.7-6-6-6zm-24-4c0-1.1.9-2 2-2h16c1.1 0 2 .9 2 2v5.56c-1.22 1.1-2 2.68-2 4.44v4H47v-4c0-1.76-.78-3.34-2-4.44V45zm26 20c0 1.1-.9 2-2 2H41c-1.1 0-2-.9-2-2V55c0-1.1.9-2 2-2s2 .9 2 2v8h24v-8c0-1.1.9-2 2-2s2 .9 2 2v10z" fill="#000"/></svg>