<svg width="20" height="21" viewBox="0 0 20 21" fill="none" xmlns="http://www.w3.org/2000/svg">
<path d="M10.0964 20.0625C8.36206 20.0625 6.75269 19.6328 5.26831 18.7734C3.83081 17.9141 2.68237 16.7656 1.823 15.3281C0.947998 13.8438 0.510498 12.2344 0.510498 10.5C0.510498 8.76562 0.947998 7.15625 1.823 5.67188C2.68237 4.23438 3.83081 3.08594 5.26831 2.22656C6.75269 1.36719 8.36206 0.9375 10.0964 0.9375C11.8308 0.9375 13.4402 1.36719 14.9246 2.22656C16.3621 3.08594 17.5027 4.23438 18.3464 5.67188C19.2214 7.15625 19.6589 8.76562 19.6589 10.5C19.6589 12.2344 19.2214 13.8438 18.3464 15.3281C17.5027 16.7656 16.3621 17.9141 14.9246 18.7734C13.4402 19.6328 11.8308 20.0625 10.0964 20.0625ZM9.81519 13.3828L14.5496 8.64844L13.3777 7.47656L8.90112 11.9531L6.79175 9.84375L5.59644 11.0391L7.96362 13.3828C8.21362 13.6328 8.51831 13.7578 8.87769 13.7578C9.23706 13.7578 9.54956 13.6328 9.81519 13.3828Z" fill="#EFE9E5"/>
</svg>
