<svg width="32" height="34" fill="none" xmlns="http://www.w3.org/2000/svg"><path d="M16 6.745c-.594 0-1.188.063-1.781.188a8.501 8.501 0 00-1.735.516A9.166 9.166 0 008.5 10.753a9.477 9.477 0 00-1.102 2.344 8.953 8.953 0 00-.375 2.601 8.77 8.77 0 00.704 3.493 9.233 9.233 0 001.898 2.86 9.03 9.03 0 002.86 1.921 8.772 8.772 0 003.492.703 8.773 8.773 0 003.492-.703 9.235 9.235 0 002.86-1.899 9.03 9.03 0 001.921-2.859 8.77 8.77 0 00.703-3.492 8.77 8.77 0 00-.703-3.492 9.03 9.03 0 00-1.922-2.86 8.756 8.756 0 00-2.836-1.921A8.771 8.771 0 0016 6.745zm0-1.007a9.63 9.63 0 013.89.796 9.929 9.929 0 013.188 2.133 9.928 9.928 0 012.133 3.188 9.63 9.63 0 01.797 3.89 9.63 9.63 0 01-.797 3.891 9.927 9.927 0 01-2.133 3.188 9.927 9.927 0 01-3.187 2.132 9.63 9.63 0 01-3.891.797 9.63 9.63 0 01-3.89-.797 9.928 9.928 0 01-3.188-2.133 9.928 9.928 0 01-2.133-3.187 9.63 9.63 0 01-.797-3.89 9.63 9.63 0 01.797-3.891 9.93 9.93 0 012.133-3.188 9.93 9.93 0 013.187-2.133A9.63 9.63 0 0116 5.738zM14.523 19.73a.767.767 0 00.188-.024.625.625 0 00.164-.117l6.07-6a.45.45 0 00.14-.328.477.477 0 00-.14-.351.444.444 0 00-.351-.165.532.532 0 00-.352.141l-5.719 5.649-2.648-2.649h-.023c0-.016-.008-.023-.024-.023a.408.408 0 00-.351-.118.477.477 0 00-.352.141.56.56 0 00-.14.375.508.508 0 00.187.328l3 3a.624.624 0 00.164.117.767.767 0 00.187.024z" fill="#EC7000"/></svg>