<svg width="32" height="34" fill="none" xmlns="http://www.w3.org/2000/svg"><path d="M18.93 7.564c.5-.203.968-.156 1.406.141.437.297.656.711.656 1.242v1.29H22v-1.29c0-.89-.367-1.578-1.102-2.062-.734-.5-1.515-.586-2.343-.258l-8.86 3.61h2.649l6.586-2.673zM19 17.736c0 .422.14.781.422 1.078a1.51 1.51 0 001.078.422c.422 0 .773-.14 1.055-.422.297-.297.445-.656.445-1.078a1.39 1.39 0 00-.445-1.054 1.393 1.393 0 00-1.055-.446c-.422 0-.781.149-1.078.446A1.43 1.43 0 0019 17.736zm1.008 0a.477.477 0 01.492-.492.477.477 0 01.492.492.477.477 0 01-.492.492.477.477 0 01-.492-.492zm2.484-6.492c.703 0 1.297.242 1.781.727.485.484.727 1.07.727 1.758v8.015c0 .688-.242 1.273-.727 1.758-.484.484-1.078.727-1.78.727H8.5a1.51 1.51 0 01-1.078-.422A1.51 1.51 0 017 22.729v-9.985c0-.422.14-.773.422-1.055a1.468 1.468 0 011.078-.445h13.992zM8.5 12.23a.444.444 0 00-.352.164.477.477 0 00-.14.351v9.985c0 .14.047.265.14.375a.48.48 0 00.352.14h13.992c.422 0 .774-.148 1.055-.445.297-.297.445-.649.445-1.055V13.73a1.44 1.44 0 00-.445-1.055 1.393 1.393 0 00-1.055-.445H8.5z" fill="#EC7000"/></svg>