<svg width="32" height="33" viewBox="0 0 32 33" fill="none"
    xmlns="http://www.w3.org/2000/svg">
    <path d="M20.9922 22.6558C20.9922 22.7964 20.9453 22.9214 20.8516 23.0308C20.7578 23.1245 20.6406 23.1714 20.5 23.1714H15.5078C15.3672 23.1714 15.2422 23.1245 15.1328 23.0308C15.0391 22.9214 14.9922 22.7964 14.9922 22.6558C14.9922 22.5308 15.0391 22.4214 15.1328 22.3276C15.2422 22.2183 15.3672 22.1636 15.5078 22.1636H20.5C20.6406 22.1636 20.7578 22.2183 20.8516 22.3276C20.9453 22.4214 20.9922 22.5308 20.9922 22.6558ZM20.5 19.1636H11.5C11.3594 19.1636 11.2422 19.2183 11.1484 19.3276C11.0547 19.4214 11.0078 19.5308 11.0078 19.6558C11.0078 19.7964 11.0547 19.9214 11.1484 20.0308C11.2422 20.1245 11.3594 20.1714 11.5 20.1714H20.5C20.6406 20.1714 20.7578 20.1245 20.8516 20.0308C20.9453 19.9214 20.9922 19.7964 20.9922 19.6558C20.9922 19.5308 20.9453 19.4214 20.8516 19.3276C20.7578 19.2183 20.6406 19.1636 20.5 19.1636ZM20.5 16.1636H11.5C11.3594 16.1636 11.2422 16.2183 11.1484 16.3276C11.0547 16.4214 11.0078 16.5308 11.0078 16.6558C11.0078 16.7964 11.0547 16.9214 11.1484 17.0308C11.2422 17.1245 11.3594 17.1714 11.5 17.1714H20.5C20.6406 17.1714 20.7578 17.1245 20.8516 17.0308C20.9453 16.9214 20.9922 16.7964 20.9922 16.6558C20.9922 16.5308 20.9453 16.4214 20.8516 16.3276C20.7578 16.2183 20.6406 16.1636 20.5 16.1636ZM11.9922 12.1558H8.99219V25.1636H23.0078V7.16357H13V11.1714C13 11.437 12.8984 11.6714 12.6953 11.8745C12.5078 12.062 12.2734 12.1558 11.9922 12.1558ZM23.9922 7.16357V25.1636C23.9922 25.4448 23.8906 25.6792 23.6875 25.8667C23.5 26.0698 23.2734 26.1714 23.0078 26.1714H8.99219C8.72656 26.1714 8.49219 26.0698 8.28906 25.8667C8.10156 25.6792 8.00781 25.4448 8.00781 25.1636V11.0308C8.00781 10.9214 8.02344 10.812 8.05469 10.7026C8.08594 10.5933 8.14062 10.4995 8.21875 10.4214L11.1953 6.5542C11.2891 6.4292 11.4062 6.33545 11.5469 6.27295C11.6875 6.19482 11.8359 6.15576 11.9922 6.15576H23.0078C23.2734 6.15576 23.5 6.25732 23.6875 6.46045C23.8906 6.64795 23.9922 6.88232 23.9922 7.16357ZM8.99219 11.1714H11.9922V7.16357L8.99219 11.1714Z" fill="#EC7000"/>
</svg>
