<svg width="25" height="24" viewBox="0 0 25 24" fill="none"
    xmlns="http://www.w3.org/2000/svg">
    <path d="M6.25977 3.13477C6.25977 3.99414 5.94727 4.72656 5.32227 5.33203C4.7168 5.9375 3.98438 6.24023 3.125 6.24023C2.26562 6.24023 1.52344 5.9375 0.898438 5.33203C0.292969 4.72656 -0.00976562 3.99414 -0.00976562 3.13477C-0.00976562 2.25586 0.292969 1.51367 0.898438 0.908203C1.52344 0.302734 2.26562 0 3.125 0C3.98438 0 4.7168 0.302734 5.32227 0.908203C5.94727 1.51367 6.25977 2.25586 6.25977 3.13477ZM6.25977 11.8652C6.25977 12.7441 5.94727 13.4863 5.32227 14.0918C4.7168 14.6973 3.98438 15 3.125 15C2.26562 15 1.52344 14.6973 0.898438 14.0918C0.292969 13.4863 -0.00976562 12.7441 -0.00976562 11.8652C-0.00976562 11.0059 0.292969 10.2734 0.898438 9.66797C1.52344 9.0625 2.26562 8.75977 3.125 8.75977C3.98438 8.75977 4.7168 9.0625 5.32227 9.66797C5.94727 10.2734 6.25977 11.0059 6.25977 11.8652ZM6.25977 20.625C6.25977 21.4844 5.94727 22.2168 5.32227 22.8223C4.7168 23.4473 3.98438 23.7598 3.125 23.7598C2.26562 23.7598 1.52344 23.4473 0.898438 22.8223C0.292969 22.2168 -0.00976562 21.4844 -0.00976562 20.625C-0.00976562 19.7656 0.292969 19.0332 0.898438 18.4277C1.52344 17.8027 2.26562 17.4902 3.125 17.4902C3.98438 17.4902 4.7168 17.8027 5.32227 18.4277C5.94727 19.0332 6.25977 19.7656 6.25977 20.625ZM21.875 3.75H9.36523C9.20898 3.75 9.0625 3.69141 8.92578 3.57422C8.80859 3.4375 8.75 3.29102 8.75 3.13477C8.75 2.95898 8.80859 2.8125 8.92578 2.69531C9.0625 2.55859 9.20898 2.49023 9.36523 2.49023H21.875C22.0508 2.49023 22.1973 2.55859 22.3145 2.69531C22.4316 2.8125 22.4902 2.95898 22.4902 3.13477C22.4902 3.29102 22.4316 3.4375 22.3145 3.57422C22.1973 3.69141 22.0508 3.75 21.875 3.75ZM24.3652 12.5098H9.36523C9.20898 12.5098 9.0625 12.4512 8.92578 12.334C8.80859 12.1973 8.75 12.041 8.75 11.8652C8.75 11.709 8.80859 11.5723 8.92578 11.4551C9.0625 11.3184 9.20898 11.25 9.36523 11.25H24.3652C24.541 11.25 24.6875 11.3184 24.8047 11.4551C24.9414 11.5723 25.0098 11.709 25.0098 11.8652C25.0098 12.041 24.9414 12.1973 24.8047 12.334C24.6875 12.4512 24.541 12.5098 24.3652 12.5098ZM16.8652 21.2402H9.36523C9.20898 21.2402 9.0625 21.1816 8.92578 21.0645C8.80859 20.9473 8.75 20.8008 8.75 20.625C8.75 20.4492 8.80859 20.3027 8.92578 20.1855C9.0625 20.0684 9.20898 20.0098 9.36523 20.0098H16.8652C17.041 20.0098 17.1875 20.0684 17.3047 20.1855C17.4414 20.3027 17.5098 20.4492 17.5098 20.625C17.5098 20.8008 17.4414 20.9473 17.3047 21.0645C17.1875 21.1816 17.041 21.2402 16.8652 21.2402Z" fill="#56504C"/>
</svg>
