<svg width="14" height="19" viewBox="0 0 14 19" fill="none" xmlns="http://www.w3.org/2000/svg">
<path d="M10.832 13.1562H10.8555V15.3359C10.8555 15.6016 10.7617 15.8281 10.5742 16.0156C10.3867 16.2031 10.1602 16.2969 9.89453 16.2969H4.12891C3.86328 16.2969 3.63672 16.2031 3.44922 16.0156C3.26172 15.8281 3.16797 15.6016 3.16797 15.3359V13.1562C3.16797 12.8438 3.03516 12.5703 2.76953 12.3359C1.98828 11.7109 1.37109 10.9375 0.917969 10.0156C0.480469 9.09375 0.261719 8.10938 0.261719 7.0625C0.261719 5.82812 0.574219 4.6875 1.19922 3.64062C1.79297 2.60938 2.59766 1.79688 3.61328 1.20312C4.66016 0.578125 5.79297 0.265625 7.01172 0.265625C8.23047 0.265625 9.35547 0.578125 10.3867 1.20312C11.4023 1.79688 12.2148 2.60938 12.8242 3.64062C13.4336 4.6875 13.7383 5.82812 13.7383 7.0625C13.7383 8.10938 13.5117 9.10156 13.0586 10.0391C12.6211 10.9453 12.0117 11.7109 11.2305 12.3359C10.9648 12.5547 10.832 12.8281 10.832 13.1562ZM5.06641 17.0234H8.91016V18.7344H5.06641V17.0234Z" fill="#231D19"/>
</svg>
