<?xml version="1.0" encoding="utf-8"?>
<!-- Generator: Adobe Illustrator 28.1.0, SVG Export Plug-In . SVG Version: 6.00 Build 0)  -->
<svg version="1.1" id="Capa_1" xmlns="http://www.w3.org/2000/svg" xmlns:xlink="http://www.w3.org/1999/xlink" x="0px" y="0px"
	 viewBox="0 0 49 48" style="enable-background:new 0 0 49 48;" xml:space="preserve">
<style type="text/css">
	.st0{fill:#FFFFFF;}
</style>
<path class="st0" d="M26.2,34.9c0.5-0.4,0.7-1,0.7-1.7v-0.9c-0.1,0-0.2,0-0.4,0c-0.2,0-0.3,0-0.5,0c-1.9,0-3,0.6-3,1.7
	c0,1,0.7,1.5,1.8,1.5c0.3,0,0.6-0.1,0.8-0.2C25.8,35.2,26,35.1,26.2,34.9 M42.7,37.7h-3.4l0-1.3C38.5,37.4,37.5,38,36,38
	c-2.5,0-4.1-1.8-4.1-4.5v-7.8h3.5v7.2c0,1.5,0.6,2.2,1.8,2.2c1.2,0,1.9-0.9,1.9-2.4v-7.1h3.5L42.7,37.7L42.7,37.7z M40.4,24h-5.9v-2
	l5.9-1V24z M30.2,37.7h-3.3l0-1.3c-0.2,0.2-0.4,0.5-0.6,0.6c-0.6,0.6-1.5,0.9-2.6,0.9c-0.9,0-1.8-0.2-2.4-0.6
	c-0.3-0.2-0.6-0.4-0.8-0.7c-0.2-0.2-0.3-0.4-0.4-0.6c-0.3-0.5-0.5-1.2-0.5-1.9c0-0.6,0.1-1.2,0.4-1.8c0.1-0.3,0.3-0.5,0.5-0.7
	c0.1-0.1,0.2-0.2,0.3-0.3c1-0.9,2.7-1.4,4.8-1.4c0.4,0,0.9,0,1.2,0c0-1.3-0.9-2-2.5-2c-1.3,0-2.7,0.3-4.1,0.9v-2.8
	c1.4-0.5,2.9-0.8,4.6-0.8c3.4,0,5.3,1.8,5.3,5.3V37.7L30.2,37.7z M18.5,28.4h-3.1v4.9c0,1.3,0.5,1.8,1.6,1.8c0.5,0,1-0.1,1.3-0.1
	v2.7c-0.4,0.1-1.2,0.2-2.2,0.2c-2.7,0-4.2-1.5-4.2-4.4v-5.1h-1.8v-2.7h1.8v-3l3.5-0.6v3.6h3.1V28.4L18.5,28.4z M9.2,22.4
	c0,1.2-0.9,2-2.1,2c-1.2,0-2.1-0.8-2.1-2s0.9-2,2.1-2C8.3,20.4,9.2,21.2,9.2,22.4z M5.3,25.6h3.5v12H5.3V25.6z M48,24
	c0-7-0.7-13.6-1.7-17.8c-0.5-2.4-1.9-4-4.5-4.6C37.4,0.6,31,0,24,0C17,0,10.6,0.6,6.2,1.7C3.6,2.3,2.2,3.8,1.7,6.2
	C0.7,10.4,0,17,0,24c0,7,0.7,13.6,1.7,17.8c0.5,2.4,1.9,4,4.5,4.5C10.6,47.4,17,48,24,48c7,0,13.4-0.6,17.8-1.7
	c2.7-0.6,4.1-2.2,4.5-4.5C47.3,37.6,48,31,48,24"/>
</svg>
