<svg width="56" height="57" fill="none" xmlns="http://www.w3.org/2000/svg"><path d="M41.986 21.236H12.25c-.492 0-.916.178-1.271.534-.329.328-.493.738-.493 1.23v21c0 .492.164.902.492 1.23.356.356.78.534 1.272.534h29.736c.492 0 .903-.178 1.23-.534.356-.328.534-.738.534-1.23V23c0-.492-.178-.902-.533-1.23a1.605 1.605 0 00-1.23-.534zM38.46 23a13.76 13.76 0 01-.287 1.805 10.22 10.22 0 01-.574 1.763 11.934 11.934 0 01-1.026 1.928 11.67 11.67 0 01-1.394 1.682c-.52.52-1.094.984-1.723 1.394-.602.41-1.23.752-1.887 1.026a10.22 10.22 0 01-1.763.574 13.76 13.76 0 01-1.805.287v-.82a.777.777 0 00-.287-.616c-.164-.191-.356-.287-.574-.287a.903.903 0 00-.657.287.835.835 0 00-.246.616v.82a13.763 13.763 0 01-1.804-.287 9.101 9.101 0 01-1.723-.574 10.018 10.018 0 01-1.928-1.026 13.737 13.737 0 01-1.722-1.394 11.67 11.67 0 01-1.395-1.682 11.918 11.918 0 01-1.025-1.928 10.22 10.22 0 01-.575-1.763A13.744 13.744 0 0115.777 23H38.46zm3.527 21H12.25V23h1.764c.109 1.64.506 3.172 1.19 4.594a13.922 13.922 0 002.624 3.814 12.823 12.823 0 003.815 2.625 12.404 12.404 0 004.593 1.19v.902c0 .246.082.451.246.615a.98.98 0 00.657.246c.218 0 .41-.082.574-.246a.777.777 0 00.287-.615v-.902c1.64-.11 3.172-.506 4.594-1.19a12.82 12.82 0 003.814-2.625 12.82 12.82 0 002.625-3.814A12.404 12.404 0 0040.223 23h1.763v21zM22.75 19.514h-1.764V12.5c0-.492.164-.902.492-1.23.356-.356.78-.534 1.272-.534h8.736c.492 0 .903.178 1.23.534.356.328.534.738.534 1.23v7.014h-1.764V12.5H22.75v7.014z" fill="#56504C"/></svg>