<svg width="25" height="24" viewBox="0 0 25 24" fill="none" xmlns="http://www.w3.org/2000/svg">
<path d="M21.5 11.5078C21.5 11.6328 21.4453 11.75 21.3359 11.8594C21.2422 11.9531 21.1328 12 21.0078 12H13.5078V19.5C13.5078 19.6406 13.4531 19.7578 13.3438 19.8516C13.25 19.9453 13.1328 19.9922 12.9922 19.9922C12.8672 19.9922 12.75 19.9453 12.6406 19.8516C12.5469 19.7578 12.5 19.6406 12.5 19.5V12H5C4.85938 12 4.74219 11.9531 4.64844 11.8594C4.55469 11.75 4.50781 11.6328 4.50781 11.5078C4.50781 11.3672 4.55469 11.25 4.64844 11.1562C4.74219 11.0469 4.85938 10.9922 5 10.9922H12.5V3.49219C12.5 3.36719 12.5469 3.25781 12.6406 3.16406C12.75 3.05469 12.8672 3 12.9922 3C13.1328 3 13.25 3.05469 13.3438 3.16406C13.4531 3.25781 13.5078 3.36719 13.5078 3.49219V10.9922H21.0078C21.1328 10.9922 21.2422 11.0469 21.3359 11.1562C21.4453 11.25 21.5 11.3672 21.5 11.5078Z" fill="#003399"/>
</svg>
