<svg width="32" height="34" fill="none" xmlns="http://www.w3.org/2000/svg"><path d="M16 6.582c-.61 0-1.21.062-1.805.187a8.09 8.09 0 00-1.687.516 9.243 9.243 0 00-1.547.844A7.92 7.92 0 009.648 9.23a8.354 8.354 0 00-1.125 1.336 9.445 9.445 0 00-.82 1.524 9.083 9.083 0 00-.539 1.71 9.942 9.942 0 000 3.586c.125.579.305 1.141.54 1.688.234.547.507 1.063.82 1.547a8.92 8.92 0 001.124 1.312 8.94 8.94 0 001.313 1.125c.484.313 1 .586 1.547.82.547.235 1.11.415 1.687.54a9.939 9.939 0 003.586 0 9.695 9.695 0 001.735-.54 9.904 9.904 0 001.5-.82 9.278 9.278 0 001.359-1.125 9.245 9.245 0 001.922-2.86 8.061 8.061 0 00.515-1.686A8.737 8.737 0 0025 15.582c0-.61-.063-1.203-.188-1.782a8.022 8.022 0 00-.515-1.71 8.456 8.456 0 00-.844-1.524 8.23 8.23 0 00-2.438-2.438 8.805 8.805 0 00-1.5-.843 8.501 8.501 0 00-1.734-.516A8.404 8.404 0 0016 6.582zm0-1.008a9.63 9.63 0 013.89.797 9.928 9.928 0 013.188 2.133 9.928 9.928 0 012.133 3.187 9.63 9.63 0 01.797 3.89 9.63 9.63 0 01-.797 3.891 9.927 9.927 0 01-2.133 3.188 9.927 9.927 0 01-3.187 2.133A9.63 9.63 0 0116 25.59a9.63 9.63 0 01-3.89-.797 9.928 9.928 0 01-3.188-2.133 10.463 10.463 0 01-2.133-3.188 9.63 9.63 0 01-.797-3.89 9.63 9.63 0 01.797-3.89 10.464 10.464 0 012.133-3.188 9.929 9.929 0 013.187-2.133A9.63 9.63 0 0116 5.574zm2.273 4.851c.266.266.47.586.61.961.156.376.234.79.234 1.243 0 .515-.14.984-.422 1.406-.28.422-.695.797-1.242 1.125-.015 0-.031.008-.047.023-.015 0-.031.008-.047.024-.187.093-.468.312-.843.656-.36.328-.508.899-.446 1.711a.714.714 0 010 .258.516.516 0 01-.093.21 1.522 1.522 0 01-.165.141.415.415 0 01-.187.047c-.016 0-.031.008-.047.024h-.047a.872.872 0 01-.21-.024 3.688 3.688 0 01-.165-.117.645.645 0 01-.164-.188 1.733 1.733 0 01-.07-.304 4.1 4.1 0 01.117-1.336 2.95 2.95 0 01.563-1.102c.203-.25.406-.445.609-.586.219-.156.39-.265.516-.328h.023l.023-.023c.344-.203.625-.422.844-.656.219-.25.328-.57.328-.961 0-.579-.187-1.047-.562-1.407-.36-.375-.828-.562-1.406-.562-.266 0-.54.062-.82.187-.266.11-.485.258-.657.446a1.597 1.597 0 00-.352.515 1.935 1.935 0 00-.093.61c.015.172-.04.304-.164.398a.76.76 0 01-.352.14.593.593 0 01-.234 0 .427.427 0 01-.188-.14.374.374 0 01-.164-.21.886.886 0 01-.047-.282c0-.563.117-1.016.352-1.36.234-.359.469-.632.703-.82.281-.203.594-.36.937-.468.36-.125.72-.188 1.079-.188a3.2 3.2 0 011.242.234c.375.157.726.391 1.054.704zm-2.765 11.157a.926.926 0 00.68-.282.992.992 0 00.304-.726.892.892 0 00-.305-.68.892.892 0 00-.68-.304.992.992 0 00-.726.304.926.926 0 00-.281.68c0 .281.094.523.281.726.203.188.446.282.727.282z" fill="#EC7000"/></svg>