<svg width="36" height="38" fill="none" xmlns="http://www.w3.org/2000/svg"><path d="M13.56 35.272l1.026 2.214-12.674-4.593a1.76 1.76 0 01-1.025-.903 1.783 1.783 0 01-.041-1.353L5.48 17.922l1.026 2.256-4.02 11.033 11.074 4.06zM4.414 9.145l12.1 25.921v-4.142L6.014 8.406l10.5-4.88V1.597L5.275 6.848a1.61 1.61 0 00-.902.984c-.164.438-.15.875.041 1.313zM35.75 2.5v33.264c0 .464-.178.861-.533 1.19a1.605 1.605 0 01-1.23.532H20c-.492 0-.916-.177-1.271-.533a1.62 1.62 0 01-.493-1.19V2.5c0-.492.164-.902.492-1.23.356-.356.78-.534 1.272-.534h13.986c.492 0 .903.178 1.23.534.356.328.534.738.534 1.23zm-1.764 0H20v33.264h13.986V2.5z" fill="#56504C"/></svg>