<?xml version="1.0" encoding="utf-8"?>
<!-- Generator: Adobe Illustrator 28.1.0, SVG Export Plug-In . SVG Version: 6.00 Build 0)  -->
<svg version="1.1" id="Capa_1" xmlns="http://www.w3.org/2000/svg" xmlns:xlink="http://www.w3.org/1999/xlink" x="0px" y="0px"
	 viewBox="0 0 56 57" style="enable-background:new 0 0 56 57;" xml:space="preserve">
<style type="text/css">
	.st0{fill:#56504C;}
</style>
<g>
	<path class="st0" d="M51.9,4.8c-1.8-2-3.9-3.2-6.5-3.5c-0.4-0.1-0.7,0-1.1,0.3c-0.3,0.3-0.4,0.6-0.4,1c0,0.3,0.1,0.6,0.3,0.9
		c0.3,0.3,0.5,0.4,0.8,0.4c0.9,0.1,1.7,0.4,2.4,0.8s1.4,0.9,2.1,1.5c0.8,0.8,1.4,1.6,1.8,2.6c0.4,1,0.6,2,0.6,3v32.3
		c0,1.1-0.2,2.1-0.6,3.1c-0.4,1-1,1.8-1.8,2.6c-0.6,0.6-1.3,1.1-2.1,1.5S45.9,52,45,52.2c-0.3,0-0.6,0.2-0.8,0.4
		c-0.2,0.3-0.3,0.5-0.3,0.9c0,0.4,0.1,0.8,0.4,1c0.3,0.3,0.7,0.4,1.1,0.3c2.6-0.3,4.8-1.5,6.5-3.5c1.8-2,2.7-4.4,2.7-7.1V11.9
		C54.6,9.2,53.7,6.8,51.9,4.8z"/>
	<path class="st0" d="M4.2,8.8c0.4-1,1-1.9,1.8-2.6c0.6-0.6,1.3-1.1,2.1-1.5s1.6-0.6,2.4-0.8c0.3,0,0.5-0.2,0.8-0.4
		c0.3-0.3,0.4-0.5,0.4-0.9c0-0.4-0.2-0.8-0.5-1c-0.3-0.3-0.6-0.4-1-0.3C7.6,1.6,5.4,2.8,3.6,4.8C1.9,6.8,1,9.2,1,11.9v32.3
		c0,2.7,0.9,5.1,2.6,7.1c1.8,2,4,3.2,6.6,3.5c0.4,0.1,0.7,0,1-0.3c0.3-0.3,0.5-0.6,0.5-1c0-0.3-0.1-0.6-0.4-0.9
		c-0.2-0.3-0.5-0.4-0.8-0.4c-0.9-0.1-1.7-0.4-2.4-0.8s-1.4-0.9-2.1-1.5c-0.8-0.8-1.4-1.6-1.8-2.6c-0.4-1-0.6-2.1-0.6-3.1V11.9
		C3.7,10.8,3.9,9.8,4.2,8.8z"/>
	<path class="st0" d="M32.6,29.9H29v-3.6c0-0.3-0.1-0.6-0.4-0.8c-0.2-0.2-0.5-0.4-0.8-0.4c-0.3,0-0.6,0.1-0.9,0.4
		c-0.2,0.2-0.3,0.5-0.3,0.8v3.6H23c-0.3,0-0.6,0.1-0.9,0.4c-0.2,0.2-0.3,0.5-0.3,0.8c0,0.3,0.1,0.6,0.3,0.8l0,0l0,0
		c0.2,0.2,0.5,0.3,0.8,0.3h3.6v3.6c0,0.3,0.1,0.6,0.3,0.8l0,0l0,0c0.2,0.2,0.5,0.3,0.8,0.3c0.3,0,0.6-0.1,0.8-0.3
		c0.2-0.2,0.4-0.5,0.4-0.8v-3.6h3.6c0.3,0,0.6-0.1,0.8-0.3c0.2-0.2,0.4-0.5,0.4-0.8c0-0.3-0.1-0.6-0.4-0.8
		C33.2,30,32.9,29.9,32.6,29.9z"/>
	<path class="st0" d="M38.1,18.7h-4.4v-4.4c0-1-0.4-1.9-1-2.6c-0.7-0.7-1.5-1-2.5-1h-4.8c-1,0-1.9,0.4-2.6,1c-0.7,0.7-1,1.6-1,2.6
		v4.4h-4.4c-1.4,0-2.6,0.5-3.6,1.5c-1,1-1.5,2.2-1.5,3.6v14.4c0,1.4,0.5,2.6,1.5,3.6c1,1,2.2,1.5,3.6,1.5h20.8
		c1.4,0,2.6-0.5,3.6-1.5c1-1,1.5-2.2,1.5-3.6V23.9c0-1.4-0.5-2.6-1.5-3.6C40.8,19.3,39.6,18.7,38.1,18.7z M25.4,13.1h4.8
		c0.1,0,0.3,0,0.4,0.1l0,0l0,0c0.1,0.1,0.3,0.1,0.4,0.2c0.1,0.1,0.2,0.2,0.2,0.4l0,0c0.1,0.1,0.1,0.3,0.1,0.4v4.4h-7.2v-4.4
		c0-0.2,0-0.3,0.1-0.4c0.1-0.2,0.2-0.3,0.3-0.4c0.1-0.1,0.2-0.2,0.4-0.3l0,0l0,0C25.1,13.2,25.2,13.1,25.4,13.1z M39.2,40.9
		c-0.3,0.1-0.7,0.2-1,0.2H17.4c-0.4,0-0.7-0.1-1.1-0.2c-0.3-0.2-0.6-0.4-0.9-0.6c-0.3-0.3-0.5-0.6-0.6-0.9c-0.1-0.4-0.2-0.7-0.2-1.1
		V23.9c0-0.4,0.1-0.7,0.2-1c0.2-0.4,0.4-0.7,0.6-1c0.3-0.3,0.6-0.5,0.9-0.6l0,0c0.4-0.2,0.7-0.2,1.1-0.2h20.8c0.4,0,0.7,0.1,1,0.2
		l0,0l0,0c0.3,0.1,0.6,0.3,0.9,0.6c0.3,0.3,0.5,0.6,0.6,1l0,0l0,0c0.2,0.3,0.2,0.7,0.2,1v14.4c0,0.4-0.1,0.7-0.2,1.1l0,0
		c-0.1,0.3-0.3,0.6-0.6,0.9C39.8,40.5,39.5,40.7,39.2,40.9z"/>
</g>
</svg>
