<svg width="68" height="68" fill="none" xmlns="http://www.w3.org/2000/svg"><path d="M14 65.797c0 .52-.208.937-.625 1.25a1.58 1.58 0 01-1.25.39c-3.23-.468-5.964-1.953-8.203-4.453-2.188-2.5-3.281-5.416-3.281-8.75V13.922c0-3.386 1.093-6.328 3.28-8.828 2.24-2.5 4.975-3.959 8.204-4.375.469-.104.885.026 1.25.39.417.313.625.73.625 1.25 0 .417-.156.782-.469 1.094-.26.313-.573.495-.937.547a9.892 9.892 0 00-3.047.938 9.892 9.892 0 00-2.578 1.875 9.514 9.514 0 00-2.266 3.28A10.2 10.2 0 004 13.844v40.391c0 1.302.234 2.578.703 3.828a9.724 9.724 0 002.266 3.204 11.63 11.63 0 002.578 1.953 8.566 8.566 0 003.047.86c.364.103.677.312.937.624.313.313.469.677.469 1.094zM55.875.719c-.469-.104-.911.026-1.328.39-.365.313-.547.73-.547 1.25 0 .417.13.782.39 1.094.313.313.652.495 1.016.547a9.892 9.892 0 013.047.938 9.891 9.891 0 012.578 1.875 8.658 8.658 0 012.188 3.28 9.309 9.309 0 01.781 3.75V54c0 1.354-.26 2.63-.781 3.828-.469 1.198-1.198 2.266-2.188 3.203a11.605 11.605 0 01-2.578 1.953 9.894 9.894 0 01-3.047.938c-.364.052-.703.234-1.015.547-.26.312-.391.677-.391 1.094 0 .468.182.859.547 1.171.417.365.86.521 1.328.47 3.23-.47 5.938-1.954 8.125-4.454 2.24-2.5 3.36-5.417 3.36-8.75V13.922c0-3.386-1.12-6.328-3.36-8.828-2.188-2.5-4.896-3.959-8.125-4.375zM54 57.359H37.36c-.938 0-1.745-.312-2.422-.937C34.312 55.745 34 54.938 34 54V14c0-.938.313-1.719.938-2.344.677-.677 1.484-1.015 2.421-1.015H54c.938 0 1.719.338 2.344 1.015.677.625 1.015 1.406 1.015 2.344v40c0 .938-.338 1.745-1.015 2.422-.625.625-1.407.937-2.344.937zM54 54V14H37.36v40H54zm-23.36-6.484v-8.047l-8.437-18.516 8.438-3.906v-3.36c0-.104.026-.208.078-.312l-9.922 4.61c-.834.364-1.432.989-1.797 1.874-.313.834-.26 1.667.156 2.5l11.485 25.157zM14 46.734L19.625 31.5l-1.484-3.281a4.03 4.03 0 00-.86.781c-.26.26-.468.573-.625.938l-5.781 15.625c-.313.885-.287 1.744.078 2.578.417.833 1.042 1.406 1.875 1.718l18.438 6.875-2.032-4.297L14 46.734z" fill="#89837F"/></svg>