<svg width="74" height="71" viewBox="0 0 56 57" fill="none" xmlns="http://www.w3.org/2000/svg">
<path d="M12.25 17.709V38.791C12.25 39.502 12.373 40.1855 12.6191 40.8418C12.8926 41.4707 13.2891 42.0312 13.8086 42.5234C14.2188 42.9336 14.6699 43.2617 15.1621 43.5078C15.6543 43.7539 16.1875 43.918 16.7617 44C16.9531 44.0273 17.1172 44.123 17.2539 44.2871C17.418 44.4512 17.5 44.6426 17.5 44.8613C17.5 45.1348 17.3906 45.3535 17.1719 45.5176C16.9805 45.709 16.7617 45.7773 16.5156 45.7227C14.8203 45.5039 13.3848 44.7383 12.209 43.4258C11.0605 42.1133 10.4863 40.5684 10.4863 38.791V17.709C10.4863 15.9316 11.0605 14.3867 12.209 13.0742C13.3848 11.7617 14.8203 10.9961 16.5156 10.7773C16.7617 10.7227 16.9805 10.791 17.1719 10.9824C17.3906 11.1465 17.5 11.3652 17.5 11.6387C17.5 11.8574 17.418 12.0488 17.2539 12.2129C17.1172 12.377 16.9531 12.4727 16.7617 12.5C16.1875 12.582 15.6543 12.7461 15.1621 12.9922C14.6699 13.2383 14.2188 13.5664 13.8086 13.9766C13.2891 14.4688 12.8926 15.043 12.6191 15.6992C12.373 16.3281 12.25 16.998 12.25 17.709ZM39.4844 10.7773C39.2383 10.7227 39.0059 10.791 38.7871 10.9824C38.5957 11.1465 38.5 11.3652 38.5 11.6387C38.5 11.8574 38.5684 12.0488 38.7051 12.2129C38.8691 12.377 39.0469 12.4727 39.2383 12.5C39.8125 12.582 40.3457 12.7461 40.8379 12.9922C41.3301 13.2383 41.7812 13.5664 42.1914 13.9766C42.7109 14.4688 43.0938 15.043 43.3398 15.6992C43.6133 16.3281 43.75 16.9844 43.75 17.668V38.791C43.75 39.502 43.6133 40.1855 43.3398 40.8418C43.0938 41.4707 42.7109 42.0312 42.1914 42.5234C41.7812 42.9336 41.3301 43.2617 40.8379 43.5078C40.3457 43.7539 39.8125 43.918 39.2383 44C39.0469 44.0273 38.8691 44.123 38.7051 44.2871C38.5684 44.4512 38.5 44.6426 38.5 44.8613C38.5 45.1348 38.5957 45.3535 38.7871 45.5176C39.0059 45.709 39.2383 45.7773 39.4844 45.7227C41.1797 45.5039 42.6016 44.7383 43.75 43.4258C44.9258 42.1133 45.5137 40.5684 45.5137 38.791V17.709C45.5137 15.9316 44.9258 14.3867 43.75 13.0742C42.6016 11.7617 41.1797 10.9961 39.4844 10.7773Z" fill="#56504C"/>
<path d="M31.625 30.2373C31.625 30.3675 31.568 30.4896 31.4541 30.6035C31.3564 30.7012 31.2425 30.75 31.1123 30.75H28.5V33.3623C28.5 33.4925 28.443 33.6146 28.3291 33.7285C28.2314 33.8262 28.1175 33.875 27.9873 33.875C27.8408 33.875 27.7106 33.8262 27.5967 33.7285C27.499 33.6146 27.4502 33.4925 27.4502 33.3623V30.75H24.8623C24.7158 30.75 24.5856 30.7012 24.4717 30.6035C24.374 30.4896 24.3252 30.3675 24.3252 30.2373C24.3252 30.0908 24.374 29.9688 24.4717 29.8711C24.5856 29.7572 24.7158 29.7002 24.8623 29.7002H27.4502V27.1123C27.4502 26.9658 27.499 26.8438 27.5967 26.7461C27.7106 26.6322 27.8408 26.5752 27.9873 26.5752C28.1175 26.5752 28.2314 26.6322 28.3291 26.7461C28.443 26.8438 28.5 26.9658 28.5 27.1123V29.7002H31.1123C31.2425 29.7002 31.3564 29.7572 31.4541 29.8711C31.568 29.9688 31.625 30.0908 31.625 30.2373ZM37.875 25.5498V34.9248C37.875 35.7712 37.5658 36.5036 36.9473 37.1221C36.3451 37.7406 35.6126 38.0498 34.75 38.0498H21.2002C20.3538 38.0498 19.6214 37.7406 19.0029 37.1221C18.3844 36.5036 18.0752 35.7712 18.0752 34.9248V25.5498C18.0752 24.6872 18.3844 23.9548 19.0029 23.3525C19.6214 22.734 20.3538 22.4248 21.2002 22.4248H24.3252V19.2998C24.3252 18.7139 24.5286 18.2174 24.9355 17.8105C25.3424 17.4036 25.8389 17.2002 26.4248 17.2002H29.5498C30.1195 17.2002 30.6077 17.4036 31.0146 17.8105C31.4215 18.2174 31.625 18.7139 31.625 19.2998V22.4248H34.75C35.6126 22.4248 36.3451 22.734 36.9473 23.3525C37.5658 23.9548 37.875 24.6872 37.875 25.5498ZM25.375 22.4248H30.5752V19.2998C30.5752 19.1533 30.5508 19.0231 30.502 18.9092C30.4531 18.779 30.3799 18.665 30.2822 18.5674C30.1846 18.4697 30.0706 18.3965 29.9404 18.3477C29.8102 18.2826 29.68 18.25 29.5498 18.25H26.4248C26.2783 18.25 26.14 18.2826 26.0098 18.3477C25.8958 18.3965 25.79 18.4697 25.6924 18.5674C25.5947 18.665 25.5133 18.779 25.4482 18.9092C25.3994 19.0231 25.375 19.1533 25.375 19.2998V22.4248ZM36.8252 25.5498C36.8252 25.2731 36.7682 25.0127 36.6543 24.7686C36.5566 24.5081 36.4102 24.2721 36.2148 24.0605C36.0195 23.8652 35.7917 23.7188 35.5312 23.6211C35.2871 23.5072 35.0267 23.4502 34.75 23.4502H21.2002C20.9235 23.4502 20.6549 23.5072 20.3945 23.6211C20.1504 23.7188 19.9307 23.8652 19.7354 24.0605C19.54 24.2721 19.3854 24.5081 19.2715 24.7686C19.1738 25.0127 19.125 25.2731 19.125 25.5498V34.9248C19.125 35.2015 19.1738 35.4701 19.2715 35.7305C19.3854 35.9746 19.54 36.1943 19.7354 36.3896C19.9307 36.585 20.1504 36.7396 20.3945 36.8535C20.6549 36.9512 20.9235 37 21.2002 37H34.75C35.0267 37 35.2871 36.9512 35.5312 36.8535C35.7917 36.7396 36.0195 36.585 36.2148 36.3896C36.4102 36.1943 36.5566 35.9746 36.6543 35.7305C36.7682 35.4701 36.8252 35.2015 36.8252 34.9248V25.5498Z" fill="#56504C"/>
<path fill-rule="evenodd" clip-rule="evenodd" d="M26.4248 17.4502C25.9038 17.4502 25.4714 17.6283 25.1123 17.9873C24.7533 18.3464 24.5752 18.7788 24.5752 19.2998V22.6748H21.2002C20.4226 22.6748 19.7531 22.956 19.1797 23.5293L19.1773 23.5317C18.6072 24.0869 18.3252 24.7547 18.3252 25.5498V34.9248C18.3252 35.7024 18.6063 36.3719 19.1797 36.9453C19.7531 37.5187 20.4226 37.7998 21.2002 37.7998H34.75C35.5451 37.7998 36.213 37.5179 36.7681 36.9477L36.7705 36.9453C37.3438 36.3719 37.625 35.7024 37.625 34.9248V25.5498C37.625 24.7547 37.3431 24.0868 36.7729 23.5317L36.7681 23.527C36.2129 22.9568 35.5451 22.6748 34.75 22.6748H31.375V19.2998C31.375 18.7788 31.1969 18.3464 30.8379 17.9873C30.4773 17.6268 30.0524 17.4502 29.5498 17.4502H26.4248ZM24.7588 17.6338C25.2135 17.179 25.7739 16.9502 26.4248 16.9502H29.5498C30.1865 16.9502 30.7382 17.1805 31.1914 17.6338C31.6462 18.0885 31.875 18.6489 31.875 19.2998V22.1748H34.75C35.679 22.1748 36.4752 22.5105 37.124 23.1757C37.7893 23.8246 38.125 24.6208 38.125 25.5498V34.9248C38.125 35.8394 37.788 36.6343 37.1252 37.2977C36.4762 37.9637 35.6796 38.2998 34.75 38.2998H21.2002C20.2851 38.2998 19.4898 37.9625 18.8262 37.2988C18.1625 36.6352 17.8252 35.8399 17.8252 34.9248V25.5498C17.8252 24.6202 18.1613 23.8236 18.8273 23.1746C19.4907 22.5117 20.2856 22.1748 21.2002 22.1748H24.0752V19.2998C24.0752 18.6489 24.304 18.0885 24.7588 17.6338ZM25.9045 18.1208C26.0678 18.0404 26.2422 18 26.4248 18H29.5498C29.719 18 29.8833 18.0416 30.0405 18.1183C30.1988 18.1795 30.339 18.2706 30.459 18.3906C30.5807 18.5123 30.6727 18.6549 30.734 18.8161C30.7968 18.9648 30.8252 19.1276 30.8252 19.2998V22.6748H25.125V19.2998C25.125 19.1255 25.1541 18.9609 25.2185 18.8107L25.2213 18.8039L25.2246 18.7974C25.3011 18.6444 25.3979 18.5083 25.5156 18.3906C25.6314 18.2748 25.7609 18.1834 25.9045 18.1208ZM26.4248 18.5C26.3169 18.5 26.2168 18.5236 26.1216 18.5713L26.115 18.5745L26.1082 18.5774C26.0267 18.6124 25.9469 18.6664 25.8692 18.7442C25.7932 18.8201 25.7284 18.9096 25.6753 19.0141C25.6437 19.0906 25.625 19.1844 25.625 19.2998V22.1748H30.3252V19.2998C30.3252 19.1811 30.3055 19.0853 30.2722 19.0077L30.2676 18.9971C30.2312 18.9 30.1777 18.8164 30.1054 18.7442C30.0332 18.6719 29.9497 18.6181 29.8526 18.5817L29.8404 18.5771L29.8286 18.5713C29.729 18.5214 29.6368 18.5 29.5498 18.5H26.4248ZM20.298 23.3905C20.588 23.2641 20.8894 23.2002 21.2002 23.2002H34.75C35.0589 23.2002 35.3525 23.2634 35.6281 23.3904C35.918 23.5005 36.1732 23.6653 36.3916 23.8838L36.3987 23.8908C36.6129 24.1229 36.7756 24.3836 36.885 24.6717C37.012 24.9473 37.0752 25.2409 37.0752 25.5498V34.9248C37.0752 35.2357 37.0112 35.537 36.8849 35.8271C36.7741 36.1027 36.6087 36.3494 36.3916 36.5664C36.1736 36.7844 35.9196 36.9565 35.6315 37.0826L35.6241 37.0858C35.3489 37.1958 35.0568 37.25 34.75 37.25H21.2002C20.8934 37.25 20.5951 37.1957 20.3068 37.0876L20.2976 37.0842L20.2888 37.0801C20.0176 36.9535 19.774 36.7818 19.5586 36.5664C19.3432 36.351 19.1715 36.1074 19.0449 35.8362L19.0408 35.8274L19.0374 35.8182C18.9293 35.5299 18.875 35.2316 18.875 34.9248V25.5498C18.875 25.243 18.9293 24.9509 19.0394 24.6757L19.0423 24.6683C19.1676 24.3821 19.3377 24.1227 19.5517 23.891L19.5584 23.8836C19.7755 23.6666 20.0223 23.5013 20.298 23.3905ZM21.2002 23.7002C20.9589 23.7002 20.7244 23.7496 20.4947 23.8501L20.4874 23.8533C20.2777 23.9372 20.0873 24.063 19.9156 24.2338C19.7415 24.4233 19.604 24.6334 19.5021 24.8651C19.4179 25.0771 19.375 25.3046 19.375 25.5498V34.9248C19.375 35.1681 19.4173 35.4039 19.5022 35.6336C19.6031 35.8471 19.7393 36.04 19.9121 36.2129C20.085 36.3857 20.2779 36.5219 20.4914 36.6228C20.7211 36.7077 20.9569 36.75 21.2002 36.75H34.75C34.9951 36.75 35.2227 36.7071 35.4347 36.6229C35.6659 36.5212 35.8663 36.3846 36.0381 36.2129C36.2107 36.0403 36.3377 35.8488 36.4222 35.6376L36.4251 35.6302C36.5256 35.4005 36.5752 35.1661 36.5752 34.9248V25.5498C36.5752 25.3086 36.5258 25.0844 36.4278 24.8743L36.4236 24.8655L36.4202 24.8563C36.3349 24.6288 36.207 24.4215 36.0346 24.2338C35.8654 24.0657 35.6691 23.9398 35.4435 23.8552L35.4344 23.8518L35.4255 23.8476C35.2154 23.7496 34.9912 23.7002 34.75 23.7002H21.2002ZM27.9873 26.8252C27.9141 26.8252 27.8457 26.8507 27.7735 26.9229C27.7257 26.9706 27.7002 27.0277 27.7002 27.1123V29.9502H24.8623C24.7891 29.9502 24.7207 29.9757 24.6485 30.0479C24.6007 30.0956 24.5752 30.1527 24.5752 30.2373C24.5752 30.2947 24.5937 30.3561 24.649 30.4257C24.7144 30.4771 24.783 30.5 24.8623 30.5H27.7002V33.3623C27.7002 33.4198 27.7187 33.4811 27.774 33.5507C27.8394 33.6021 27.908 33.625 27.9873 33.625C28.0469 33.625 28.0984 33.6057 28.1523 33.5517C28.2312 33.4729 28.25 33.4112 28.25 33.3623V30.5H31.1123C31.1719 30.5 31.2234 30.4807 31.2773 30.4267C31.3562 30.3479 31.375 30.2862 31.375 30.2373C31.375 30.1658 31.3515 30.1124 31.2914 30.0609L31.2768 30.0484L31.2643 30.0338C31.2061 29.9659 31.158 29.9502 31.1123 29.9502H28.25V27.1123C28.25 27.0408 28.2265 26.9874 28.1664 26.9359L28.1518 26.9234L28.1393 26.9088C28.0811 26.8409 28.033 26.8252 27.9873 26.8252ZM27.4199 26.5693C27.5756 26.4136 27.7676 26.3252 27.9873 26.3252C28.1955 26.3252 28.3709 26.4176 28.5063 26.569C28.6648 26.7113 28.75 26.8973 28.75 27.1123V29.4502H31.1123C31.3205 29.4502 31.4959 29.5426 31.6313 29.694C31.7898 29.8363 31.875 30.0223 31.875 30.2373C31.875 30.4488 31.7799 30.6313 31.6309 30.7803C31.4895 30.9217 31.3132 31 31.1123 31H28.75V33.3623C28.75 33.5738 28.6549 33.7563 28.5059 33.9053C28.3645 34.0467 28.1882 34.125 27.9873 34.125C27.7796 34.125 27.592 34.0538 27.434 33.9183L27.4194 33.9058L27.4069 33.8912C27.2766 33.7393 27.2002 33.5612 27.2002 33.3623V31H24.8623C24.6546 31 24.467 30.9288 24.309 30.7933L24.2944 30.7808L24.2819 30.7662C24.1516 30.6143 24.0752 30.4362 24.0752 30.2373C24.0752 30.029 24.1473 29.8419 24.2949 29.6943C24.4506 29.5386 24.6426 29.4502 24.8623 29.4502H27.2002V27.1123C27.2002 26.904 27.2723 26.7169 27.4199 26.5693Z" fill="#56504C"/>
</svg>
