<svg width="10" height="15" viewBox="0 0 10 15" fill="none" xmlns="http://www.w3.org/2000/svg">
<path d="M10 11.993V14.5076C10 14.6483 9.94983 14.7655 9.8495 14.8593C9.76031 14.9531 9.6544 15 9.53177 15H0.468227C0.345596 15 0.234114 14.9531 0.133779 14.8593C0.0445931 14.7655 0 14.6483 0 14.5076V11.993C0 11.3834 0.117057 10.803 0.351171 10.2521C0.574136 9.70105 0.875139 9.22626 1.25418 8.82767C1.64437 8.41735 2.10145 8.09496 2.62542 7.86049C3.14939 7.6143 3.70123 7.49121 4.28094 7.49121H5.71906C6.29877 7.49121 6.85061 7.6143 7.37458 7.86049C7.89855 8.09496 8.35005 8.41735 8.7291 8.82767C9.11929 9.22626 9.42586 9.70105 9.64883 10.2521C9.88294 10.803 10 11.3834 10 11.993ZM5 5.99648C5.79153 5.99648 6.466 5.7034 7.02341 5.11723C7.58082 4.53107 7.85953 3.82181 7.85953 2.98945C7.85953 2.16882 7.58082 1.46542 7.02341 0.87925C6.466 0.293083 5.79153 0 5 0C4.20847 0 3.534 0.293083 2.97659 0.87925C2.41917 1.46542 2.14047 2.16882 2.14047 2.98945C2.14047 3.82181 2.41917 4.53107 2.97659 5.11723C3.534 5.7034 4.20847 5.99648 5 5.99648Z" fill="#EC7000"/>
</svg>
