<svg width="36" height="36" fill="none" xmlns="http://www.w3.org/2000/svg"><path d="M35.39 9.514a9.258 9.258 0 010 2.748c-.109.902-.368 1.928-.779 3.076a35.114 35.114 0 01-2.214 4.922 42.587 42.587 0 01-3.2 5.004 52.353 52.353 0 01-4.183 4.963 67.308 67.308 0 01-5.127 4.84 2.904 2.904 0 01-.903.492 2.543 2.543 0 01-.984.205c-.328 0-.656-.069-.984-.205a2.904 2.904 0 01-.903-.493 67.308 67.308 0 01-5.127-4.84 56.123 56.123 0 01-4.142-4.962 42.571 42.571 0 01-3.2-5.004 32.565 32.565 0 01-2.255-4.922c-.383-1.148-.643-2.174-.78-3.076a9.257 9.257 0 010-2.748c.192-1.23.588-2.38 1.19-3.446A10.645 10.645 0 014.055 3.28 10.156 10.156 0 017.09 1.434 9.53 9.53 0 0110.7.736h.081c1.422.028 2.748.315 3.979.862A10.033 10.033 0 0118 3.812c.93-.93 2.01-1.667 3.24-2.214a10.392 10.392 0 013.98-.862h.082a9.53 9.53 0 013.61.698 9.518 9.518 0 013.034 1.845 10.645 10.645 0 012.256 2.79 10.12 10.12 0 011.19 3.445zm-2.42 5.25c.356-1.04.589-1.942.698-2.707.11-.766.11-1.532 0-2.297a8.497 8.497 0 00-.984-2.79 8.842 8.842 0 00-1.887-2.378 6.298 6.298 0 00-1.19-.862 5.89 5.89 0 00-1.312-.656 7.447 7.447 0 00-1.477-.41 6.976 6.976 0 00-1.517-.164h-.041c-.575 0-1.149.068-1.723.205-.547.11-1.08.274-1.6.492-.492.219-.97.479-1.435.78a7.48 7.48 0 00-1.23 1.066L18 6.314l-1.23-1.271a6.747 6.747 0 00-1.272-1.066 8.313 8.313 0 00-3.035-1.271A6.907 6.907 0 0010.78 2.5h-.082c-.492 0-.998.055-1.517.164a6.63 6.63 0 00-1.436.41 6.855 6.855 0 00-1.353.656 8.73 8.73 0 00-1.19.862A8.841 8.841 0 003.316 6.97a7.842 7.842 0 00-.943 2.789 7.165 7.165 0 00-.041 2.297c.11.765.356 1.668.738 2.707a33.67 33.67 0 002.092 4.716 42.398 42.398 0 003.076 4.758c.602.82 1.244 1.64 1.928 2.461a83.411 83.411 0 002.133 2.38 97.541 97.541 0 002.379 2.378c.82.766 1.681 1.518 2.584 2.256.082.082.191.15.328.205.137.055.273.082.41.082.137 0 .273-.027.41-.082.137-.055.26-.123.37-.205a67.829 67.829 0 002.542-2.256c.82-.793 1.6-1.586 2.338-2.379a57.122 57.122 0 002.174-2.379c.684-.82 1.326-1.64 1.928-2.46a38.419 38.419 0 003.035-4.759 34.388 34.388 0 002.174-4.716zM10.987 5.986c.711 0 1.381.137 2.01.41a5.31 5.31 0 011.723 1.149 4.784 4.784 0 011.107 1.723c.274.628.41 1.285.41 1.968a5.27 5.27 0 01-.41 2.051 4.868 4.868 0 01-1.107 1.682 5.286 5.286 0 01-1.723 1.148 5.465 5.465 0 01-2.01.37 5.68 5.68 0 01-2.01-.37 5.412 5.412 0 01-1.681-1.148 5.412 5.412 0 01-1.149-1.682 5.28 5.28 0 01-.41-2.05c0-.684.137-1.34.41-1.97a5.285 5.285 0 011.149-1.722 5.411 5.411 0 011.682-1.149 5.18 5.18 0 012.01-.41zm0 8.778c.985 0 1.819-.342 2.502-1.026.684-.683 1.026-1.517 1.026-2.502 0-.957-.342-1.777-1.026-2.46-.683-.684-1.517-1.026-2.502-1.026-.957 0-1.777.342-2.46 1.025C7.841 9.46 7.5 10.28 7.5 11.236c0 .985.342 1.819 1.025 2.502.684.684 1.504 1.026 2.461 1.026z" fill="#56504C"/></svg>