<?xml version="1.0" encoding="utf-8"?>
<!-- Generator: Adobe Illustrator 26.5.2, SVG Export Plug-In . SVG Version: 6.00 Build 0)  -->
<svg version="1.1" id="Capa_1" xmlns="http://www.w3.org/2000/svg" xmlns:xlink="http://www.w3.org/1999/xlink" x="0px" y="0px"
	 viewBox="0 0 119 114.2" style="enable-background:new 0 0 119 114.2;" xml:space="preserve">
<style type="text/css">
	.st0{fill:#003399;}
</style>
<path class="st0" d="M97.5,88.9c0,0.8-0.3,1.4-0.8,1.9c-0.5,0.5-1.1,0.8-1.9,0.8h-8v8c0,0.8-0.3,1.4-0.9,1.9
	c-0.5,0.6-1.1,0.9-1.8,0.9c-0.8,0-1.4-0.3-2-0.9c-0.5-0.5-0.8-1.1-0.8-1.9v-8h-8c-0.8,0-1.4-0.3-1.9-0.8c-0.5-0.5-0.8-1.1-0.8-1.9
	c0-0.8,0.3-1.4,0.8-1.9c0.5-0.5,1.1-0.8,1.9-0.8h8v-8c0-0.8,0.3-1.4,0.8-1.9c0.6-0.6,1.3-0.9,2-0.9c0.7,0,1.3,0.3,1.8,0.9
	c0.6,0.5,0.9,1.1,0.9,1.9v8h8c0.8,0,1.4,0.3,1.9,0.8S97.5,88.2,97.5,88.9z M117.7,107.4c-0.5,0.8-1.1,1.6-1.8,2.3
	c-0.6,0.7-1.3,1.3-2.1,1.8c-0.8,0.6-1.8,1-2.8,1.3c-0.9,0.3-1.9,0.4-2.9,0.4H60c-1,0-2-0.1-2.9-0.4c-0.9-0.3-1.8-0.7-2.8-1.3
	c-0.8-0.5-1.5-1.1-2.1-1.8c-0.6-0.7-1.1-1.4-1.6-2.3c-0.4-0.8-0.8-1.6-1-2.5c-0.2-0.9-0.3-1.8-0.3-2.8c0-1,0.1-2,0.4-3
	c0.3-0.9,0.8-1.8,1.4-2.6L75.2,59c0,0,0,0,0-0.1c1-1.5,2.3-2.7,3.9-3.5c1.6-0.8,3.3-1.3,5-1.3c1.8,0,3.6,0.4,5.1,1.3s2.9,2,3.9,3.5
	c0,0.1,0,0.1,0,0.1l24.1,37.4c0.6,0.8,1,1.7,1.3,2.6c0.3,1,0.5,2,0.5,3c0,0.9-0.1,1.8-0.4,2.8C118.5,105.8,118.2,106.6,117.7,107.4z
	 M112.7,99.3L88.6,61.9c-0.5-0.8-1.2-1.5-2-1.9c-0.8-0.4-1.5-0.6-2.4-0.6c-0.9,0-1.8,0.2-2.6,0.6c-0.8,0.4-1.4,1-1.9,1.9L55.6,99.3
	c-1.2,1.8-1.3,3.7-0.3,5.5c1,1.8,2.6,2.8,4.8,2.8h48.2c2.1,0,3.6-0.9,4.6-2.8C114,103,113.9,101.2,112.7,99.3z M107.1,33L64.4,3.3
	c-2.9-1.8-6.2-2.8-9.7-2.8s-6.8,0.9-9.8,2.8L2.4,33c-0.7,0.4-1.1,1-1.3,1.8c-0.1,0.7,0,1.3,0.4,2c0.4,0.6,1,1,1.6,1.1
	c0.8,0.2,1.5,0,2.1-0.4L47.8,7.8c2.1-1.3,4.4-1.9,6.8-1.9c2.5,0,4.8,0.6,6.9,1.9l42.7,29.8c0.4,0.3,1,0.5,1.8,0.5
	c0.8-0.1,1.4-0.5,1.9-1.3c0.4-0.6,0.5-1.3,0.4-2C108,34,107.7,33.5,107.1,33z M46.6,93.5l1.3-2h-3.9V64.8H65l3-4.6
	c-0.3-0.3-0.8-0.4-1.3-0.5c-0.4-0.2-0.9-0.3-1.4-0.3H43.9c-1.4,0-2.7,0.5-3.8,1.6c-1,1-1.5,2.3-1.5,3.8v26.7H27.9
	c-2.9,0-5.4-1-7.5-3.1c-2.1-2.1-3.1-4.6-3.1-7.5V45.3l30.6-21.5c2.1-1.3,4.4-1.9,6.8-1.9c2.5,0,4.8,0.6,6.9,1.9l30.6,21.5v5.5
	c1.1,0.6,2.1,1.3,3,2.3c0.9,0.8,1.7,1.8,2.4,2.8V42.6L64.4,19.4c-2.9-1.8-6.2-2.8-9.7-2.8s-6.8,0.9-9.8,2.8L11.8,42.6v38.3
	c0,4.4,1.5,8.2,4.6,11.4c3.2,3.1,7,4.6,11.4,4.6h17.1c0.2-0.6,0.4-1.1,0.6-1.6C45.9,94.7,46.2,94.1,46.6,93.5z"/>
</svg>
