<svg width="56" height="56" fill="none" xmlns="http://www.w3.org/2000/svg"><path d="M43.75 26.889c0 .218-.096.424-.287.615a.787.787 0 01-.574.246H29.764v13.125a.777.777 0 01-.287.615.835.835 0 01-.616.246.93.93 0 01-.615-.246.834.834 0 01-.246-.615V27.75H14.875a.834.834 0 01-.615-.246.93.93 0 01-.246-.615c0-.246.082-.451.246-.616a.777.777 0 01.615-.287H28V12.861c0-.218.082-.41.246-.574.192-.191.397-.287.615-.287.246 0 .451.096.616.287.191.164.287.356.287.574v13.125h13.125c.218 0 .41.096.574.287.191.165.287.37.287.616z" fill="#56504C"/></svg>